<svg xmlns="http://www.w3.org/2000/svg" viewBox="0 0 163.06 180.12"><defs><style>.cls-1{fill:#f6ec85;}.cls-2{fill:#bf913b;}.cls-3{fill:#c6c6c6;}.cls-4{fill:#8e5f1a;}.cls-5{fill:#a08f47;}.cls-6{fill:#898989;}</style></defs><title>Asset 4</title><g id="Layer_2" data-name="Layer 2"><g id="ChimKen_copy" data-name="ChimKen copy"><path class="cls-1" d="M66.62,124.11c-9.61-4-20.45-10.27-28.17-17.28-6.12-5.56-11.62-12.17-14.05-20.08a43.85,43.85,0,0,1-1.64-13.16,74.75,74.75,0,0,1,2-16.59,81.71,81.71,0,0,1,3.92-12.1c5.23-12.82,13.73-24.71,25.68-31.71,12.81-7.5,28.74-8.74,43.11-5,17.27,4.46,33,16.44,39.73,33a92.68,92.68,0,0,1,4.7,17.39c1.64,8.34,1.09,15.86-.38,24.24-1.24,7.07-4.7,15.27-8,21.65-3.07,6-5.71,10.76-11.23,14.55-3.26,2.24-5.55,4.26-9.37,5.25-15.14,3.92-29.35,4.48-44.51.63" transform="translate(0 -0.13)"/><path d="M100.22,10.51a59.93,59.93,0,0,0-33.75-.84,47.2,47.2,0,0,0-7.57,2.8,45,45,0,0,0-6.84,3.9,47.37,47.37,0,0,0-6,4.85,53.47,53.47,0,0,0-5.16,5.51A77.1,77.1,0,0,0,27.53,51.65a73.86,73.86,0,0,0-3.69,24.69,38.29,38.29,0,0,0,1.71,10.92,36.16,36.16,0,0,0,4.54,9.07A53.71,53.71,0,0,0,36,103.52a73.61,73.61,0,0,0,6.13,5.69,100.94,100.94,0,0,0,11.14,7.89c3.27,2,6,3.52,8.09,4.63-2.15-.94-5-2.26-8.38-4.14a91.69,91.69,0,0,1-11.55-7.5A70.5,70.5,0,0,1,35,104.5a54.36,54.36,0,0,1-6.26-7.24,36.35,36.35,0,0,1-5-9.4,39.82,39.82,0,0,1-2-11.44A75,75,0,0,1,25.19,50.9,78.83,78.83,0,0,1,38.76,25a56.35,56.35,0,0,1,5.37-5.82A50.27,50.27,0,0,1,50.43,14a47.37,47.37,0,0,1,7.24-4.18,49.79,49.79,0,0,1,8-3,63.43,63.43,0,0,1,64.93,20.5,55,55,0,0,1,4.88,7,57.69,57.69,0,0,1,3.57,7.56,95.67,95.67,0,0,1,4,15.38,56.48,56.48,0,0,1,1,15.14c-.15,2.45-.43,4.85-.79,7.2-.18,1.17-.37,2.32-.58,3.47s-.48,2.32-.78,3.44a81.19,81.19,0,0,1-4.62,12.55,119.6,119.6,0,0,1-5.73,11,37.11,37.11,0,0,1-3.47,4.86,27.38,27.38,0,0,1-4.21,3.94l-1.15.81-1.09.75L119.5,122a21.36,21.36,0,0,1-4.68,2.46,47.65,47.65,0,0,1-4.79,1.23c-1.55.33-3.07.63-4.55.88-3,.49-5.77.87-8.42,1a77.05,77.05,0,0,1-23-1.54,89.75,89.75,0,0,0,22.91.43c2.61-.28,5.37-.73,8.28-1.3,1.45-.28,2.94-.63,4.46-1a44,44,0,0,0,4.56-1.29,19.45,19.45,0,0,0,4.26-2.38l2.12-1.53,1.1-.79,1.06-.78a25,25,0,0,0,3.83-3.74,34.19,34.19,0,0,0,3.19-4.64c1.91-3.37,3.75-7,5.44-10.88a79.26,79.26,0,0,0,4.31-12.24c.28-1.07.5-2.16.7-3.26s.38-2.26.54-3.4c.32-2.29.57-4.62.69-7a53.58,53.58,0,0,0-1.13-14.45,94.16,94.16,0,0,0-4-14.91,54.37,54.37,0,0,0-3.4-7.11,52.93,52.93,0,0,0-4.65-6.61A60.09,60.09,0,0,0,100.22,10.51Z" transform="translate(0 -0.13)"/><path d="M101,8.13A63.53,63.53,0,0,0,73.33,5.74a51.8,51.8,0,0,0-24.1,9.76A62,62,0,0,0,33.35,33.66a84.26,84.26,0,0,0-8.56,20.39,74.56,74.56,0,0,0-2.59,19.8A48.86,48.86,0,0,0,23,83a32.82,32.82,0,0,0,2.7,8.19,46.64,46.64,0,0,0,9.08,12.36,70.12,70.12,0,0,0,9.84,8.26,73.9,73.9,0,0,1-9.55-8.54,46.91,46.91,0,0,1-8.66-12.41,32.59,32.59,0,0,1-2.47-8,48.61,48.61,0,0,1-.63-9,74.33,74.33,0,0,1,2.84-19.44,83.45,83.45,0,0,1,8.62-19.9A60.48,60.48,0,0,1,50.34,17,50,50,0,0,1,73.6,7.69a62,62,0,0,1,50,15.8,51,51,0,0,1,13.81,20.92,95.46,95.46,0,0,1,3.07,11.69c.4,2,.81,3.87,1.06,5.77a50,50,0,0,1,.47,5.69,68.47,68.47,0,0,1-.66,11.07c-.25,1.8-.51,3.6-.85,5.31s-.81,3.41-1.31,5.06a105.26,105.26,0,0,1-7.78,18.12,38.49,38.49,0,0,1-4.94,7.48,25,25,0,0,1-3.07,2.94c-1.08.87-2.26,1.66-3.36,2.48a21.79,21.79,0,0,1-6.83,3.77c-2.44.67-4.83,1.26-7.12,1.72a96.56,96.56,0,0,1-12.7,1.81,91.39,91.39,0,0,0,12.77-1.41c2.33-.4,4.72-.93,7.21-1.55a22.14,22.14,0,0,0,7.12-3.7c1.12-.8,2.29-1.54,3.45-2.43a26.76,26.76,0,0,0,3.24-3,39.08,39.08,0,0,0,5.22-7.59,103.63,103.63,0,0,0,8.14-18.22c.54-1.68,1-3.41,1.41-5.18s.66-3.57.93-5.4a68.88,68.88,0,0,0,.79-11.33,51,51,0,0,0-.43-5.88c-.25-2-.65-3.94-1-5.89a94.65,94.65,0,0,0-3-11.94A52.71,52.71,0,0,0,125,22.06,63.24,63.24,0,0,0,101,8.13m.3-1A62.51,62.51,0,0,1,133,29.69a52.86,52.86,0,0,1,8.09,17c.84,2.94,1.49,5.87,2.07,8.74.29,1.45.56,2.85.82,4.34s.42,2.94.53,4.41a68.92,68.92,0,0,1-1,17c-.23,1.33-.46,2.7-.78,4s-.67,2.64-1.07,3.93c-.8,2.56-1.72,5-2.71,7.39a119.14,119.14,0,0,1-6.64,13.28,36.22,36.22,0,0,1-4.16,5.85,27.06,27.06,0,0,1-5.24,4.56c-1.74,1.17-3.43,2.47-5.35,3.53a18.78,18.78,0,0,1-3,1.32c-.51.17-1,.32-1.53.44l-1.45.34a102.68,102.68,0,0,1-10.89,1.92,81.23,81.23,0,0,1-17.7.26,68,68,0,0,1-11-1.92c-2.46-.65-3.71-1.13-3.68-1.25s1.35.07,3.85.46a91.87,91.87,0,0,0,10.93,1.16,86.76,86.76,0,0,0,17.29-.92c3.34-.51,6.88-1.23,10.59-2.18l1.4-.37a13.33,13.33,0,0,0,1.31-.41,15.19,15.19,0,0,0,2.52-1.19c1.65-1,3.28-2.25,5.08-3.52a24.26,24.26,0,0,0,4.61-4.18,33.9,33.9,0,0,0,3.72-5.45,118.47,118.47,0,0,0,6.24-13,61.5,61.5,0,0,0,4.15-14.67,66,66,0,0,0,.77-16.12c-.12-1.37-.31-2.74-.53-4.11s-.54-2.78-.83-4.19c-.6-2.83-1.24-5.65-2.06-8.44A49.2,49.2,0,0,0,129.85,32a58.9,58.9,0,0,0-29.78-21C88,7.2,74.9,7.15,63.64,11.08a48.22,48.22,0,0,0-8,3.64,49,49,0,0,0-7.09,5A59.41,59.41,0,0,0,37.33,32.34a79.5,79.5,0,0,0-7.49,14.38,78.1,78.1,0,0,0-4.3,14.7,73.16,73.16,0,0,0-1.22,14.24,37.08,37.08,0,0,0,2.16,12.75,39.13,39.13,0,0,0,5.91,10.22,65.45,65.45,0,0,0,7.34,7.84,92.83,92.83,0,0,0,13.93,10.28c8.17,5,13.1,7.06,13,7.36-.05.12-1.34-.25-3.7-1.2a94.26,94.26,0,0,1-10.05-4.81,86.72,86.72,0,0,1-14.62-10,65.24,65.24,0,0,1-7.84-7.91,41.06,41.06,0,0,1-6.56-10.8,39.34,39.34,0,0,1-2.61-13.69,74.78,74.78,0,0,1,1-14.9,79.54,79.54,0,0,1,4.29-15.4,81.68,81.68,0,0,1,7.69-15.13A63.08,63.08,0,0,1,46,16.78a52.78,52.78,0,0,1,7.63-5.42,51,51,0,0,1,8.68-4C74.49,3.09,88.36,3.15,101.27,7.17Z" transform="translate(0 -0.13)"/><path class="cls-2" d="M138.27.13c-1.19,4.43-4.47,14.19-6.79,18.15a.77.77,0,0,0-.12.28.73.73,0,0,0,.25.5A168.81,168.81,0,0,1,142.3,32.23a.77.77,0,0,0,.33.29.71.71,0,0,0,.52-.14,42.88,42.88,0,0,1,14-5.18c-1.9-1.07-5.27-2-7.48-3.72a5.37,5.37,0,0,1-1.86-2.19,4.36,4.36,0,0,1,.39-3.23c1.08-2.3,3.05-3.93,5.05-5.93a25.11,25.11,0,0,1-8.12,1.75,5.06,5.06,0,0,1-2.31-.39,5.77,5.77,0,0,1-2.41-3.09,59,59,0,0,1-2.68-7.34" transform="translate(0 -0.13)"/><path d="M154.72,29.28c-.7.16-1.37.35-2,.55l-.49.15-.29.09-.53.18c-.71.24-1.4.49-2.08.77a42.06,42.06,0,0,0-3.9,1.78L145,33l-.34.18c-.13.08-.27.13-.4.2-.54.21-1.08.61-1.58.55a1.48,1.48,0,0,1-.76-.23c-.22-.11-.39-.41-.58-.61l-.56-.65c-.1-.11-.18-.22-.27-.34l-.16-.22c-.81-1.11-1.61-2.19-2.4-3.23-1.58-2.08-3.12-4-4.59-5.83L131,20.08a4.68,4.68,0,0,1-.67-.95,1.21,1.21,0,0,1,.09-1.11L131,17l.36-.65c1.83-3.53,3.12-6.76,4.18-9.25s1.82-4.38,2.35-5.5a48.36,48.36,0,0,1-1.29,5.86,72.54,72.54,0,0,1-3.37,9.81l-.49,1.05c-.05.1-.11.23,0,.33l.29.3.16.15.26.29L134,20l1.18,1.29c1.58,1.76,3.22,3.67,4.88,5.73.84,1,1.68,2.11,2.53,3.22l.28.37c.06.06.11.18.22.16l.95-.54a43,43,0,0,1,4.16-1.95c.72-.3,1.46-.57,2.21-.84l.9-.29.29-.09a8.84,8.84,0,0,1,.87-.2l.1,0h.06l0,0-.18-.09-.38-.17-.38-.17-.19-.09-.37-.2a13.46,13.46,0,0,1-2.86-1.94A7,7,0,0,1,147,22.67a4.39,4.39,0,0,1-.66-2,6.57,6.57,0,0,1,.87-3.46c.12-.24.27-.46.4-.68l.2-.31.1-.14a3.45,3.45,0,0,1,.32-.36c.22-.24.48-.47.76-.72l.42-.37.22-.2c0-.05.21-.17.09-.12a14.5,14.5,0,0,1-1.43.33,12.86,12.86,0,0,1-2.34.19,13,13,0,0,1-1.76-.08,4.83,4.83,0,0,1-1.77-.57,5.29,5.29,0,0,1-2-2.46,32.35,32.35,0,0,1-2.14-7.19c.65,1.26,1.63,3.6,3.28,6.58a4,4,0,0,0,1.64,1.67,5.71,5.71,0,0,0,2.7.2,16,16,0,0,0,1.94-.3,25.69,25.69,0,0,0,2.91-.81c2.14-.7,4.52-1.53,6.91-2.36a3.14,3.14,0,0,1-.52.59l-.66.68L155,12.15l-3.17,3.24a15.56,15.56,0,0,0-1.53,1.78l-.3.42-.16.27c-.1.18-.2.35-.28.53a3.92,3.92,0,0,0-.5,2,1.55,1.55,0,0,0,.27.74,3.94,3.94,0,0,0,.76.8,11,11,0,0,0,2.32,1.51l1.06.5,1.31.55c.9.37,1.77.75,2.52,1.14l2.19,1.12,1.14.6.3.17.17.12.33.25C159.6,28.28,157,28.74,154.72,29.28Z" transform="translate(0 -0.13)"/><path d="M152.11,27.4l-.44.13-.6.19c-.58.19-1.15.4-1.72.61q-1.71.65-3.3,1.41c-.52.26-1.05.52-1.56.79l-.75.41-.41.23a1,1,0,0,1-.39.19c-.16,0-.22-.17-.31-.28l-.73-.94c-2.62-3.42-5.2-6.47-7.64-9.15l-.91-1-.8-.86c-.18-.23-.55-.42-.46-.73l.39-.81c.7-1.49,1.25-2.93,1.73-4.27.95-2.7,1.63-5,2.14-7-.77,1.85-1.7,4.1-2.87,6.68-.59,1.29-1.23,2.67-2,4.05-.19.39-.52.9-.69,1.35s.33.95.64,1.36l1.76,2.12c2.28,2.78,4.72,5.88,7.24,9.32l.5.69.73.9a1.36,1.36,0,0,0,.88.63,1.54,1.54,0,0,0,.53-.05c.17-.06.35-.17.53-.25.35-.17.74-.35,1.06-.53l.73-.38c.49-.26,1-.5,1.5-.74,1-.47,2.07-.91,3.16-1.32.54-.2,1.09-.39,1.66-.57.21-.08.7-.22,1.13-.35s.89-.25,1.35-.37c2-.5,4.29-.92,5.6-1.19l-.08-.19,0-.09-.26-.14-1-.52-1.94-.95c-1.26-.64-3-1.27-4.22-1.88a11.62,11.62,0,0,1-2.41-1.53,3.1,3.1,0,0,1-1.28-1.85,4.19,4.19,0,0,1,.48-2.27,7.94,7.94,0,0,1,.66-1.16A14.82,14.82,0,0,1,151,15.6c.92-1,1.82-1.92,2.63-2.75l1.19-1.21.57-.58.28-.29s.13-.11.1-.12l0,0c-2.45.86-4.83,1.71-6.82,2.26a15.39,15.39,0,0,1-4.55.61,3.41,3.41,0,0,1-1.68-.43,4.12,4.12,0,0,1-1.21-1.14,21.39,21.39,0,0,1-1.51-2.7,18,18,0,0,0,1.19,2.9,4.34,4.34,0,0,0,1.21,1.41,4,4,0,0,0,1.93.7,14.85,14.85,0,0,0,3.91-.11,22.35,22.35,0,0,0,3-.71l.09,0s0,0,0,.06l-.17.15-.33.31-.66.6c-.42.4-.83.79-1.21,1.2a7.52,7.52,0,0,0-.51.64,8.7,8.7,0,0,0-.74,1.22,5.74,5.74,0,0,0-.72,3.24,3.83,3.83,0,0,0,.67,1.76,6.52,6.52,0,0,0,1.17,1.27,13.17,13.17,0,0,0,2.75,1.83l.44.22.37.18.74.32.75.33.36.19.09.05L154,27l-.21,0c-.43.09-1.08.23-1.72.41m-1-.74h0s0,0,0,0a15,15,0,0,1-2.88-1.86,9.54,9.54,0,0,1-1.35-1.35,5,5,0,0,1-1-2.11,6.32,6.32,0,0,1,.63-3.95,11.37,11.37,0,0,1,.82-1.44l.06-.08h0l0,0,.06-.05c.14-.13.46-.36.7-.58-.13,0-.34,0-.66.05s-.09,0-1.16.06A14.46,14.46,0,0,1,144,15.2a4.93,4.93,0,0,1-2.45-1,5.89,5.89,0,0,1-1.43-1.8,22.46,22.46,0,0,1-1.24-3.18c-1.23-3.79-1.45-6.06-1.13-6.15s1.21,2,2.92,5.42a26.5,26.5,0,0,0,1.47,2.7,3.36,3.36,0,0,0,.94,1,2.42,2.42,0,0,0,1.22.34,13.58,13.58,0,0,0,1.85-.09,21,21,0,0,0,3.34-.71c1.43-.42,3.12-1,4.82-1.6l5.2-1.8c-.18.22-.52.55-.79.83l-.85.86-1.76,1.79-4,4c-.34.35-.66.7-.94,1.05a5.24,5.24,0,0,0-.42.54l-.19.27a.94.94,0,0,0-.15.21,7.24,7.24,0,0,0-.54,1,2.83,2.83,0,0,0-.3,1.64c0,.27.37.69,1.08,1.25a11.48,11.48,0,0,0,2.25,1.37c.92.43,1.89.84,2.87,1.24a24.8,24.8,0,0,1,2.66,1.25l4.62,2.47c-2.51.5-5.38,1-7.81,1.55-.88.2-1.7.44-2.5.68-.5.14-.59.18-.8.25l-.58.19c-.75.26-1.5.54-2.22.84s-1.45.61-2.15.95c-.35.16-.7.33-1,.51l-.51.26-.67.36-1,.47a2.26,2.26,0,0,1-1,.31,2.32,2.32,0,0,1-1-.21c-.29-.09-.51-.47-.76-.72l-.73-.82c-.11-.11-.27-.36-.3-.39l-.17-.23-.68-.93q-1.35-1.83-2.69-3.56c-1.77-2.3-3.51-4.45-5.17-6.44-.15-.17-.57-.71-.88-1.1a4.07,4.07,0,0,1-.46-.63,2.07,2.07,0,0,1-.18-.75c0-.51.33-1,.54-1.47s.37-.72.51-1c.55-1,1.05-2,1.5-3,1.82-4,3.14-7.33,4.12-9.6S138,.06,138.27.13c.51.14-.33,5.64-3.34,14.15-.39,1.06-.83,2.17-1.35,3.33a3.67,3.67,0,0,0-.35.82c0,.06.08.1.16.18a2.7,2.7,0,0,1,.37.37c1.8,1.93,3.68,4.05,5.57,6.33,1.7,2,4.62,5.94,3.87,4.79h0l.12-.07.27-.15.56-.3c.37-.2.75-.39,1.13-.57.77-.38,1.55-.73,2.34-1.07s1.62-.64,2.44-.93l1-.35Z" transform="translate(0 -0.13)"/><path d="M72.14,28.19c-2.58-1.84-3.87-4-3.73-4.93,1-.11,3,.7,5.49,2.5s3.92,3.69,3.92,4.68C76.88,30.68,74.71,30,72.14,28.19Z" transform="translate(0 -0.13)"/><path d="M73.6,26.17a14.79,14.79,0,0,0-4.74-2.48,9.65,9.65,0,0,0,3.57,4.1,12,12,0,0,0,4.89,2.28,11.45,11.45,0,0,0-3.72-3.9m.59-.81c2.7,1.93,4.48,4.31,3.78,5.2s-3.33,0-6.13-2a12.46,12.46,0,0,1-3.16-3.19c-.65-1-.8-1.9-.41-2.28C69.07,22.4,71.48,23.44,74.19,25.36Z" transform="translate(0 -0.13)"/><path d="M109.2,38.24c-2.89.55-4.92.18-5.65-.42.35-.9,2.29-2,5.06-2.52s4.65-.53,5.51-.1a3,3,0,0,1-1.4,1.67A10.14,10.14,0,0,1,109.2,38.24Z" transform="translate(0 -0.13)"/><path d="M108.71,35.79a9.85,9.85,0,0,0-4.6,1.9,10.14,10.14,0,0,0,5,.06,7.5,7.5,0,0,0,4.49-2.31,15.26,15.26,0,0,0-4.88.35m-.2-1a17.62,17.62,0,0,1,3.77-.39c1,0,1.74.21,2,.71s-.12,1.25-1,2a9.71,9.71,0,0,1-3.92,1.64,12.08,12.08,0,0,1-4,.17c-1-.16-1.75-.5-1.89-1s.39-1.18,1.34-1.73A12.25,12.25,0,0,1,108.51,34.81Z" transform="translate(0 -0.13)"/><path d="M70.28,33.72a1,1,0,0,0-.83,1.16,1.92,1.92,0,0,0,1,1.21,1.59,1.59,0,0,0,.55.2,1.61,1.61,0,0,0,1.21-.48,1.39,1.39,0,0,0,.59-1.08c0-.51-.54-.84-1-1.09a2.74,2.74,0,0,0-.74-.34,1,1,0,0,0-.8.11,1.48,1.48,0,0,0-.46,1" transform="translate(0 -0.13)"/><path d="M73.42,36.76a3.54,3.54,0,0,1-1.39.86,2.51,2.51,0,0,1-1,.1,2.32,2.32,0,0,1-.89-.29,3.39,3.39,0,0,1-.93-.77,2.49,2.49,0,0,1-.54-1,1.6,1.6,0,0,1,.39-1.6,1.24,1.24,0,0,1,1.1-.34.81.81,0,0,0,.34,1,1.4,1.4,0,0,0,.34.13,3.15,3.15,0,0,0,.44.11c.09-.19-.13.49-.08.37a1.06,1.06,0,0,0-.08-.42c0-.07.13-.13.24-.26l.06-.06v0h0l.1.06a1.29,1.29,0,0,0,.5.19h0l-.13.06a1.51,1.51,0,0,0-.28.2c-.09.07,0,0,0,0a0,0,0,0,0,0,0,1.5,1.5,0,0,0-.35-.41,1.24,1.24,0,0,1-.3-.35l-.1-.23a.18.18,0,0,0-.19-.15,2.57,2.57,0,0,0-.69.28,1,1,0,0,1-.23-.93,1.25,1.25,0,0,1,.6-.75,2,2,0,0,1,1.12-.24,4.16,4.16,0,0,1,1,.24,3.1,3.1,0,0,1,1,.51,2.61,2.61,0,0,1,.61.68,2.29,2.29,0,0,1,.31,1.19A2.74,2.74,0,0,1,73.42,36.76Z" transform="translate(0 -0.13)"/><path d="M71.67,35a3.87,3.87,0,0,1-.52.41s-.14,0-.31-.05a3.54,3.54,0,0,1-.43-.16,1.34,1.34,0,0,1-.61-.51,1,1,0,0,1-.14-.63,1.22,1.22,0,0,0-.61.85,1.75,1.75,0,0,0,.38,1.31,2.85,2.85,0,0,0,.57.58,2,2,0,0,0,2.19.25,3.45,3.45,0,0,0,.88-.61,2.34,2.34,0,0,0,.66-1.08,1.79,1.79,0,0,0-.24-1.46,2.59,2.59,0,0,0-1.44-.94,2.1,2.1,0,0,0-1.4,0,.84.84,0,0,0-.58.81.67.67,0,0,1,.67,0,2.51,2.51,0,0,1,.61.51c.29.25.59.56.56.66h0l0,0h0s0,0-.14,0-.07.09-.19.2m-.7-.71,0,0h0l.11.09a3.28,3.28,0,0,0,.47.32,1,1,0,0,0,.45.15s-.07,0-.32.16a5,5,0,0,0-.41.36l-.1.11h0a.08.08,0,0,0,0,0,1,1,0,0,0-.16-.2,1.75,1.75,0,0,1-.24-.25c0-.08-.06-.08,0-.17l.06-.25v0a.71.71,0,0,0,0-.15,1.31,1.31,0,0,0-.06-.29s-.06-.08,0,0l0,.06.14.1s0,0,0,0a.49.49,0,0,0-.2,0,1.61,1.61,0,0,1-.84.17.86.86,0,0,1-.64-.65,1.27,1.27,0,0,1,.14-.94,2,2,0,0,1,1.34-.93,3.13,3.13,0,0,1,1.58.12l.53.19a3.1,3.1,0,0,1,1.4,1,2.74,2.74,0,0,1,.59,1.47,3,3,0,0,1-.33,1.58,3.92,3.92,0,0,1-.69.91,3.83,3.83,0,0,1-1.79,1,3,3,0,0,1-1.42,0,2.82,2.82,0,0,1-1-.44,4,4,0,0,1-1.08-1.09,2.63,2.63,0,0,1-.44-1.35,1.72,1.72,0,0,1,1-1.67,1.47,1.47,0,0,1,1.21.12c.14.07.12.13.15.27a.6.6,0,0,0,.33.42c.22.11.31,0,.63.07h0s0-.09-.05.15a2.85,2.85,0,0,0-.2.59c0,.07,0,.11,0,.08v-.05a1,1,0,0,0,0-.25A2.25,2.25,0,0,0,71,34.6l-.11-.22h0Z" transform="translate(0 -0.13)"/><path d="M129.81,31.89c.19.08.18.59-.1,1.33a6,6,0,0,1-.64,1.22,5.22,5.22,0,0,1-.51.68,2.38,2.38,0,0,1-.94.66,2.64,2.64,0,0,1-2.08-.21,4.16,4.16,0,0,1-1.13-.91c-.5-.56-.75-.91-.67-1.1s.64-.1,1.31.26a8.27,8.27,0,0,0,1,.48,1.57,1.57,0,0,0,1,.07c.22,0,.55-.42.87-.77l.82-.92C129.27,32.14,129.62,31.8,129.81,31.89Z" transform="translate(0 -0.13)"/><path d="M135.55,40.78c-.09.19-.62.13-1.42-.11-.39-.12-.85-.29-1.35-.5l-.78-.34a2,2,0,0,1-.57-.34,1.34,1.34,0,0,1-.45-.78,1.37,1.37,0,0,1,0-.45,2.88,2.88,0,0,1,.05-.33,4.42,4.42,0,0,1,.15-.47l.31-.8c.21-.51.41-1,.6-1.33.39-.74.72-1.16.92-1.09s.21.62.09,1.43c-.06.41-.16.88-.29,1.4l-.22.81a1.83,1.83,0,0,0-.12.52h0s.06.05.2.12l.74.41a13.48,13.48,0,0,1,1.21.79C135.28,40.2,135.65,40.59,135.55,40.78Z" transform="translate(0 -0.13)"/><path d="M123.27,43.52c-.21-.05-.17-.73.32-1.52a12.38,12.38,0,0,0,.7-1.22,1.37,1.37,0,0,0,.11-1.13,3.28,3.28,0,0,0-1.06-1c-.46-.33-.84-.62-1.18-.84-.65-.45-1.13-.64-1.12-.86s.62-.38,1.55-.11a7.36,7.36,0,0,1,1.48.64A3.61,3.61,0,0,1,125.75,39a2.25,2.25,0,0,1,.17,1.38,2.85,2.85,0,0,1-.41,1,5.57,5.57,0,0,1-1.09,1.23C123.78,43.2,123.47,43.57,123.27,43.52Z" transform="translate(0 -0.13)"/><path d="M134.31,44.92c-.13.17-.7-.06-1.54-.47l-1.47-.72-.86-.41-.39-.17a.23.23,0,0,0-.11,0,1.49,1.49,0,0,0-.48.39c-.23.23-.44.46-.63.68-.39.45-.72.88-1,1.24-.56.73-.92,1.22-1.12,1.15s-.17-.71.19-1.66a7.79,7.79,0,0,1,.83-1.57c.19-.27.4-.55.64-.83a2.45,2.45,0,0,1,1.2-.85,1.61,1.61,0,0,1,1,.05,3.8,3.8,0,0,1,.56.26c.32.17.61.35.89.52a11.73,11.73,0,0,1,1.38,1C134.1,44.23,134.44,44.76,134.31,44.92Z" transform="translate(0 -0.13)"/><path d="M88.82,42.05c.12-.1.71.35,1.62,1.23A16.37,16.37,0,0,1,92,44.94a6.88,6.88,0,0,1,.8,1.23,2.05,2.05,0,0,1,.18.41,4.8,4.8,0,0,1,.21.64,1.13,1.13,0,0,1-.28,1.12,1,1,0,0,1-.58.25,2.89,2.89,0,0,1-.8-.09l-1-.17L88.76,48l-2.52-.52A8,8,0,0,1,85,47.11L84.69,47a3.35,3.35,0,0,1-.45-.24,1.33,1.33,0,0,1-.56-.79,1.28,1.28,0,0,1,.28-1,2.74,2.74,0,0,1,.4-.37l.26-.18.94-.61c.58-.37,1.11-.69,1.55-.94.88-.51,1.43-.74,1.51-.62s-.3.57-1.05,1.25c-.37.35-.83.75-1.36,1.2l-.86.71-.21.17s0,0,0,0,0,.06,0,.08a.07.07,0,0,0,0,0l.06,0,.24.08c.33.1.69.18,1.08.26l2.51.47,1.81.36.78.16a.09.09,0,0,0,0,0s0,0,0,0,0,0,0-.05a2.51,2.51,0,0,0-.1-.26A6.71,6.71,0,0,0,91,45.63c-.43-.68-.9-1.28-1.25-1.79C89.06,42.82,88.7,42.16,88.82,42.05Z" transform="translate(0 -0.13)"/><path d="M104,46.72a2,2,0,0,1-.71-.69,2.2,2.2,0,0,1-.25-.7,5.08,5.08,0,0,1,0-.59,3.13,3.13,0,0,1,.26-1.36,2.44,2.44,0,0,1,.92-1,2.53,2.53,0,0,1,.92-.32,1.73,1.73,0,0,1,1.9.78c-.26.35-.8.71-1.11,1.14a1.19,1.19,0,0,0-.15.3s0,.1,0,.06h0l.13,0,0,0s0,.08,0,.17l0,.15v.08h0l-.41.07a1.76,1.76,0,0,0-.61.18c-.07,0,0,.05,0-.1a3.29,3.29,0,0,0,.26-.75l0-.16h.07l.26.05.28.06s0,0,.08.08a1.4,1.4,0,0,0,.13.18l-.13-.17h0a.17.17,0,0,0,.11,0l.15-.09a2.73,2.73,0,0,0,.9-1.12,1,1,0,0,1,.74.44,2,2,0,0,1,.31,1.41,2.75,2.75,0,0,1-.09.45,4.6,4.6,0,0,1-.28.53l-.18.27-.27.25a2.78,2.78,0,0,1-.59.35,3.06,3.06,0,0,1-1.27.27,3.63,3.63,0,0,1-.58,0A2.31,2.31,0,0,1,104,46.72Z" transform="translate(0 -0.13)"/><path d="M105,44.94c-.14.23-.13.09.15,0a2.28,2.28,0,0,1,.33-.08v0l0-.13-.06-.42a.57.57,0,0,1,.06-.48,4.07,4.07,0,0,1,1.08-1,1.95,1.95,0,0,0-3,1.29,3.09,3.09,0,0,0-.06.83,2.06,2.06,0,0,0,.08.53,1.46,1.46,0,0,0,.67.84,2.37,2.37,0,0,0,1.05.24,3.1,3.1,0,0,0,.85-.08,2.43,2.43,0,0,0,.81-.35,1.88,1.88,0,0,0,.34-.3,1.8,1.8,0,0,0,.21-.35,1.59,1.59,0,0,0-.19-1.94,2.18,2.18,0,0,1-.92,1.06.3.3,0,0,1-.22.06h-.3a3.35,3.35,0,0,1-.4-.05l-.25,0h-.06l0,.08,0,.14a1.29,1.29,0,0,1-.09.2m0,0a3.56,3.56,0,0,0,.29-.87l.09-.47c0-.11,0,0,0-.05h.06l.2,0c.11,0,0,0,.19.39l.14.25.07.1s.08.1,0,0a2,2,0,0,0-.4-.36c-.06,0,0,0,0,0s.19,0,.29,0a1.5,1.5,0,0,0,.59-.42,4,4,0,0,1,.56-.6.77.77,0,0,1,.89,0,2,2,0,0,1,.73,1.55,2.67,2.67,0,0,1-.22,1.2,3.92,3.92,0,0,1-.46.74,3,3,0,0,1-.75.61,3.71,3.71,0,0,1-1.63.45,4.16,4.16,0,0,1-.72,0,3,3,0,0,1-1.16-.34,2.5,2.5,0,0,1-1-1,2.43,2.43,0,0,1-.27-.87,1.84,1.84,0,0,1,0-.35v-.33a3.48,3.48,0,0,1,.5-1.81,2.83,2.83,0,0,1,1.29-1.08,2.92,2.92,0,0,1,1.13-.23c1.35.07,1.79.79,1.72,1.3s-.68,1-1,1.43a.83.83,0,0,0-.13.32s.08.14-.11-.07a1.57,1.57,0,0,0-.19-.18l0,0a2.39,2.39,0,0,0,.29.07l.21,0,.19,0s0,0,0,0l0,.12,0,.1v0l-.2,0-.39.06c-.39.06-.55.1-.68.13L105,45C104.87,45.08,104.9,45.1,105,44.94Z" transform="translate(0 -0.13)"/></g><g id="Sword_and_Hands_copy" data-name="Sword and Hands copy"><path class="cls-3" d="M71.78,99.42c-3,12-9,23.13-12,35.15a30.92,30.92,0,0,0-1.1,7.21,5.28,5.28,0,0,0,.42,2.4c.79,1.56,2.72,2.1,4.43,2.43,2.47.49,5.37.76,7.19-1a7.73,7.73,0,0,0,1.68-2.9c5.1-13,6.18-27.29,10.52-40.58.17-.53.33-1.18,0-1.59a1.6,1.6,0,0,0-.86-.4,57.05,57.05,0,0,0-9.1-1.33" transform="translate(0 -0.13)"/><path class="cls-3" d="M67,98.09c-3.37,12.84-10.19,24.74-12.62,37.83-1,5.32-1.4,11.31,4.08,14.25,3.84,2.07,9.91,2.67,13.8.49,4.57-2.56,6-8.87,7.31-13.49,1.89-6.43,3.11-13,4.53-19.56.77-3.57,1.59-7.13,2.59-10.65.65-2.27,1.74-4.57,1.24-7-1.24-6-10.27-5.77-15-6.15-6.41-.53-6.38,9.48,0,10,2.23.18,5.37.09,7.43,1l-2.29-3q.23-2.49-.51.67c-.27.87-.52,1.75-.76,2.63-.57,2-1.07,4.12-1.55,6.19-.82,3.57-1.54,7.15-2.3,10.73-.9,4.16-1.82,8.32-3,12.4-.52,1.73-1,3.5-1.69,5.19-1,2.45-.51,2-2.75,2.18s-2-.06-1.7-1.93A53.81,53.81,0,0,1,65,134.19c1-3.7,2.31-7.32,3.66-10.9,2.81-7.47,5.89-14.81,7.91-22.54,1.63-6.23-8-8.89-9.64-2.66Z" transform="translate(0 -0.13)"/><path class="cls-4" d="M81.27,63.13c-1.66,5.54-3.7,13.09-5.36,18.63-.24.79-.43,1.77.16,2.35.86.86,2,.8,3.2,1s2.52,1,3.86.91,1.84-1.55,2.15-2.77c1.31-5.23,3.68-11.91,5-17.14" transform="translate(0 -0.13)"/><path d="M79.11,86.63a18.7,18.7,0,0,1-2.54-.5,4.12,4.12,0,0,1-1.65-1.08,2.82,2.82,0,0,1-.7-1.76,4.48,4.48,0,0,1,.06-1,6.75,6.75,0,0,1,.16-.7c.11-.36.23-.72.33-1.08l.64-2c.83-2.6,1.61-4.91,2.33-6.9a47.36,47.36,0,0,1,3.32-7.77,47,47,0,0,1-1.33,8.37c-.45,2.07-1,4.45-1.69,7.09l-.53,2a8.46,8.46,0,0,0-.35,1.54.48.48,0,0,0,.4.42c.42.15,1.18.18,2.16.37s1.77.58,2.38.74a4.16,4.16,0,0,0,.74.14.5.5,0,0,0,.29-.07c.1-.06.12-.08.27-.3a4.05,4.05,0,0,0,.33-.72c.18-.51.38-1.29.58-1.93.8-2.65,1.65-5,2.4-6.93a61.66,61.66,0,0,1,3.37-7.74,38,38,0,0,1-1.38,8.36c-.51,2-1.09,4.4-1.74,7-.17.67-.27,1.26-.52,2.11a7,7,0,0,1-.53,1.27A4.15,4.15,0,0,1,84.71,87a3.16,3.16,0,0,1-1.86.53,6.2,6.2,0,0,1-1.54-.22C80.4,87.06,79.69,86.74,79.11,86.63Z" transform="translate(0 -0.13)"/><path d="M79.62,84.18c-.72-.14-1.34-.18-1.84-.29a1.65,1.65,0,0,1-1-.45,1,1,0,0,1-.14-.89c.09-.44.27-1,.4-1.56.57-2.15,1.07-4.15,1.5-6,.86-3.64,1.45-6.58,1.75-8.64-.84,1.9-1.9,4.7-3.11,8.23-.6,1.77-1.24,3.73-1.9,5.85-.16.54-.34,1-.51,1.7a2.91,2.91,0,0,0,.37,2.44,3.81,3.81,0,0,0,2.17,1.24c.7.15,1.33.19,1.85.3,1,.18,2.16.91,3.83.89a2.75,2.75,0,0,0,2.18-1.22A6,6,0,0,0,86,84c.52-2.22,1-4.14,1.47-6,.91-3.62,1.57-6.55,1.87-8.61-.83,1.91-2,4.67-3.23,8.2-.63,1.74-1.29,3.77-1.88,5.85a4.14,4.14,0,0,1-.59,1.23.92.92,0,0,1-.77.4,4.71,4.71,0,0,1-1.4-.3,17.2,17.2,0,0,0-1.89-.59m.21-1c1.17.26,2,.65,2.54.79a4.29,4.29,0,0,0,.48.08s0,0,0,0a2,2,0,0,0,.25-.41,5.94,5.94,0,0,0,.3-.85c.22-.78.45-1.55.68-2.29C85,77.59,86,75,86.86,72.87c1.72-4.27,2.88-6.86,3.41-6.74s.33,3.06-.71,7.58c-.5,2.25-1.19,4.91-1.91,7.82-.17.73-.35,1.47-.53,2.23a9.33,9.33,0,0,1-.44,1.44,5.48,5.48,0,0,1-1.05,1.67A3.61,3.61,0,0,1,83.48,88a5.54,5.54,0,0,1-2-.14c-1.09-.27-1.87-.63-2.42-.73-.29-.06-.7-.11-1.18-.18a7,7,0,0,1-1.78-.48,4.19,4.19,0,0,1-1.88-1.59,3.81,3.81,0,0,1-.42-2.37,6.63,6.63,0,0,1,.19-.94l.2-.65.36-1.15.71-2.23c.94-2.89,1.84-5.49,2.65-7.65,1.62-4.32,2.89-6.91,3.41-6.75s.22,3-.7,7.57c-.47,2.26-1.09,4.94-1.83,7.89-.19.74-.38,1.5-.58,2.27L77.85,82l-.14.52c0,.13-.06.32,0,.27a0,0,0,0,0,0,0,4.55,4.55,0,0,0,.71.15C78.79,83,79.25,83.08,79.83,83.2Z" transform="translate(0 -0.13)"/><path class="cls-5" d="M74.35,61.42l20.91,5.66a3.14,3.14,0,0,0,1.84.11,2.6,2.6,0,0,0,1.36-2.61A9,9,0,0,0,94,57.33a18.79,18.79,0,0,0-8.45-2.42,14.69,14.69,0,0,0-7.78,1c-2.38,1.17-4.24,3.72-3.88,6.35" transform="translate(0 -0.13)"/><path d="M99,60.58a9,9,0,0,1,1,3.24,6.6,6.6,0,0,1-.06,1.76,5.39,5.39,0,0,1-.26.93,3.94,3.94,0,0,1-.56,1,3.11,3.11,0,0,1-1.87,1.16,3.45,3.45,0,0,1-1.11,0,6.64,6.64,0,0,1-.85-.17l-2.41-.71c-3.1-.92-5.86-1.78-8.24-2.57a64.19,64.19,0,0,1-9.33-3.6,67.19,67.19,0,0,1,9.87,1.59c2.45.52,5.27,1.16,8.41,1.93l2.39.59a2.78,2.78,0,0,0,.4.07h.18a.51.51,0,0,0,.29-.21,1.19,1.19,0,0,0,.08-.16,2.84,2.84,0,0,0,.09-.39,4.39,4.39,0,0,0,0-1,6.37,6.37,0,0,0-.66-2.18c-1.47-2.93-4.53-4.46-7.44-5.15a31.44,31.44,0,0,0-4.31-.71,18.42,18.42,0,0,0-3.78,0,9.74,9.74,0,0,0-3,.81,7.51,7.51,0,0,0-2.09,1.49,7.15,7.15,0,0,0-1.78,3,5.08,5.08,0,0,1,.9-3.68,7.58,7.58,0,0,1,2.15-2.21A10.34,10.34,0,0,1,80.4,54a17.83,17.83,0,0,1,4.27-.38,27.43,27.43,0,0,1,4.77.48A16,16,0,0,1,94.64,56,11.22,11.22,0,0,1,99,60.58Z" transform="translate(0 -0.13)"/><path d="M96.74,61.7a7,7,0,0,1,.63,1.82,5,5,0,0,1,0,1.75,1.89,1.89,0,0,1-.1.36,1,1,0,0,1-.11.25.9.9,0,0,1-.38.37c-.34.16-.62.1-1.3-.06C93,65.55,90.6,65,88.44,64.5c-4.32-1-7.8-1.66-10.23-2,2.29.91,5.64,2.07,9.86,3.4,2.11.66,4.44,1.37,7,2.1a5.47,5.47,0,0,0,1.17.25A2.79,2.79,0,0,0,97.66,68a2.74,2.74,0,0,0,1.12-1,4.42,4.42,0,0,0,.36-.68,5.31,5.31,0,0,0,.19-.65,6.67,6.67,0,0,0,0-2.52,8.75,8.75,0,0,0-.79-2.36,11.69,11.69,0,0,0-7-5.65,24.25,24.25,0,0,0-7.43-1,13.46,13.46,0,0,0-6,1.2,7.24,7.24,0,0,0-3.26,3.14A8,8,0,0,1,78.43,56a14.12,14.12,0,0,1,5.66-.52A26.9,26.9,0,0,1,91,56.89a12.37,12.37,0,0,1,3.3,1.81,9.28,9.28,0,0,1,2.48,3m-.89.45a8.48,8.48,0,0,0-3.37-3.45A15.49,15.49,0,0,0,87.78,57,32.44,32.44,0,0,0,83,56.46a12.42,12.42,0,0,0-3.9.4,7,7,0,0,0-4.23,3.3c-.65,1.18-.68,2.05-1,2.09s-.81-.83-.5-2.59a6.76,6.76,0,0,1,1.35-2.86,8.42,8.42,0,0,1,3.36-2.58A13.72,13.72,0,0,1,83,53.14a28.93,28.93,0,0,1,5.43.27,17.77,17.77,0,0,1,6,1.87,11.91,11.91,0,0,1,5,5.08,9.21,9.21,0,0,1,1,3.72l0,.49c0,.19,0,.37,0,.55a6.37,6.37,0,0,1-.21,1.11,3.54,3.54,0,0,1-.2.57,4.55,4.55,0,0,1-.34.66,4,4,0,0,1-1,1.07,3.72,3.72,0,0,1-2.7.67,10.67,10.67,0,0,1-1.72-.41L91.63,68c-3.45-1-6.55-2-9.13-2.92-5.17-1.77-8.3-3.13-8.15-3.67s3.53-.13,8.89.94c2.68.54,5.85,1.24,9.36,2.09l2.69.65a7.76,7.76,0,0,0,1.06.24s0,0,0,0h0s0,0,0,0a.47.47,0,0,0,0-.14,1.79,1.79,0,0,0,.06-.37v-.2l0-.27A5.68,5.68,0,0,0,95.85,62.15Z" transform="translate(0 -0.13)"/><path class="cls-5" d="M60.64,83.39c6.72.4,13.48.82,20,2.47s12.88,4.63,17.52,9.51a3.66,3.66,0,0,1,.94,1.37,1.38,1.38,0,0,1-.38,1.52,2,2,0,0,1-1.24.28A47.84,47.84,0,0,1,87.09,97C78.75,95,70.48,92.79,62.21,90.55A8.6,8.6,0,0,1,58.68,89a3,3,0,0,1-.89-3.49c.63-1.1,2-1.43,3.28-1.64a26.59,26.59,0,0,1,7.21-.57" transform="translate(0 -0.13)"/><path d="M92.75,96.6c.73.12,1.45.22,2.16.29L96,97l.64,0c.17,0,.38,0,.5-.1a.41.41,0,0,0,0-.47,1.37,1.37,0,0,0-.15-.21l-.09-.1-.28-.29c-.43-.44-.89-.85-1.33-1.26a31.89,31.89,0,0,0-2.82-2.19,36.66,36.66,0,0,0-5.86-3.24,54.37,54.37,0,0,0-11-3.39c-3.3-.69-6.14-1.09-8.41-1.44s-4-.61-5.06-.85c1.1-.1,2.83-.17,5.14-.14a74.15,74.15,0,0,1,8.64.58,48.57,48.57,0,0,1,11.64,2.89A35.53,35.53,0,0,1,94,90.09a31.91,31.91,0,0,1,3.15,2.33c.5.44,1,.88,1.5,1.37l.41.41c.19.18.39.4.57.61a4.79,4.79,0,0,1,.83,1.37,3,3,0,0,1-.33,2.75A3.19,3.19,0,0,1,97.27,100c-.3,0-.62,0-.94,0l-.57,0c-.39,0-.77,0-1.16-.09-.77-.08-1.55-.18-2.33-.31a91.53,91.53,0,0,1-9.11-2.09L75,95.26c-5.19-1.42-9.8-2.71-13.82-3.92a8.16,8.16,0,0,1-3-1.55,4.21,4.21,0,0,1-1.46-3,3,3,0,0,1,.45-1.64,3.16,3.16,0,0,1,1.13-1.06,6.44,6.44,0,0,1,2.35-.67,23.81,23.81,0,0,1,6.13-.16c-1.24.18-3.23.58-5.92,1.26a5.82,5.82,0,0,0-1.83.74,1.52,1.52,0,0,0-.68,1.45,2.54,2.54,0,0,0,1,1.68,6.59,6.59,0,0,0,2.38,1c4,.92,8.72,2,13.91,3.26l8.19,2C86.7,95.34,89.7,96.1,92.75,96.6Z" transform="translate(0 -0.13)"/><path d="M92.35,99.07c.81.13,1.62.24,2.42.31a21.29,21.29,0,0,0,2.65.13,2.3,2.3,0,0,0,2.51-3.29,5.34,5.34,0,0,0-1.27-1.71c-.42-.41-.74-.74-1.14-1.09a25.32,25.32,0,0,0-2.31-1.88,32,32,0,0,0-4.79-2.92,41.09,41.09,0,0,0-9.24-3.26,66.07,66.07,0,0,0-13.92-1.52,102.31,102.31,0,0,1,13.61,2.71,44.65,44.65,0,0,1,8.78,3.55A33,33,0,0,1,94.12,93a27.25,27.25,0,0,1,2.13,1.81c.34.31.7.69,1,1a3.18,3.18,0,0,1,.5.61.87.87,0,0,1,0,.86c-.19.3-.61.28-1,.27s-1.12-.06-1.84-.13-1.52-.18-2.29-.31c-2.4-.41-4.75-.92-7-1.51L79.07,94c-4.23-1-8.16-2-11.73-2.81L62.24,90c-1.57-.36-3-.81-3.81-1.86a2.69,2.69,0,0,1-.6-1.72,2,2,0,0,1,.77-1.48,8,8,0,0,1,3.08-1.15,7.57,7.57,0,0,0-3.32.82,2.48,2.48,0,0,0-1.13,1.76,3.43,3.43,0,0,0,.55,2.22c.9,1.42,2.61,2,4.17,2.49l5,1.45c3.54,1,7.44,2.09,11.67,3.23l6.57,1.75q3.38.93,7.14,1.58m-.16,1c-1.78-.29-3.49-.67-5.14-1l-4.82-1.27-9.1-2.46L64.93,93c-1.29-.38-2.51-.71-3.73-1.09a8.48,8.48,0,0,1-3.73-2.08,4.87,4.87,0,0,1-1.11-2,3.79,3.79,0,0,1,.08-2.35,3.58,3.58,0,0,1,1.43-1.72,5.48,5.48,0,0,1,1.63-.65,19.86,19.86,0,0,1,2.62-.34c.78-.07,1.5-.12,2.15-.13,2.63-.07,4.06.45,4,.7s-1.42.32-3.83.84c-.61.13-1.28.29-2,.47s-1.6.35-2.31.61-1.22.66-1.27,1a1.78,1.78,0,0,0,.65,1.56,6.16,6.16,0,0,0,2.55,1.08l3.73.85L74,91.7l9.1,2.22,4.8,1.2c1.63.37,3.26.72,4.89,1,.68.12,1.35.21,2,.28l1,.09c.31,0,.79,0,.64,0s0,0,0,0h0s0,0-.06-.07l-.35-.36c-.48-.47-1-.93-1.48-1.36a30.52,30.52,0,0,0-3.16-2.36,38,38,0,0,0-6.69-3.4,62.93,62.93,0,0,0-12.4-3.28c-3.62-.63-6.58-1-8.61-1.37s-3.14-.65-3.12-.9,1.14-.42,3.21-.51a79.61,79.61,0,0,1,8.85.2A54.91,54.91,0,0,1,86,85.68a38.9,38.9,0,0,1,7.5,3.47,32.24,32.24,0,0,1,3.64,2.58c.6.48,1.17,1,1.73,1.53l.42.42c.17.16.47.46.7.72a5,5,0,0,1,1,1.74,3.42,3.42,0,0,1-.59,3.27,3,3,0,0,1-1.4.92,2.77,2.77,0,0,1-.94.15c-.34,0-.67,0-1,0-.85,0-1.08,0-1.48-.07s-.75-.06-1.12-.1C93.67,100.28,92.93,100.17,92.19,100.05Z" transform="translate(0 -0.13)"/><path d="M66.15,92.37l-15,52.42c-.71,2.48,3.15,3.54,3.86,1.06L70,93.43c.71-2.48-3.15-3.54-3.86-1.06Z" transform="translate(0 -0.13)"/><path d="M86,98.87q-7.23,25.71-13.24,51.75c-.58,2.51,3.28,3.58,3.86,1.07q6-26,13.24-51.76c.7-2.48-3.16-3.54-3.86-1.06Z" transform="translate(0 -0.13)"/><path d="M72.36,96.12Q68.6,110.34,64,124.32c-.4,1.23,1.53,1.75,1.93.53q4.56-14,8.32-28.2a1,1,0,0,0-1.93-.53Z" transform="translate(0 -0.13)"/><path d="M80.31,97.23l-8.22,29.06a1,1,0,0,0,1.93.53l8.22-29.06a1,1,0,0,0-1.93-.53Z" transform="translate(0 -0.13)"/><path class="cls-1" d="M32.27,41.13c-2.17,3.34-6.11,5.07-9,7.86a38.4,38.4,0,0,0-4.47,4.73A8.79,8.79,0,0,0,17,59.8a11.64,11.64,0,0,0,2.88,5.6,69.72,69.72,0,0,0,29,21.29,18.41,18.41,0,0,0,5,1.36,13.7,13.7,0,0,0,9.83-3.57A32.13,32.13,0,0,0,70.14,76a102.24,102.24,0,0,0,6-11.88,24.82,24.82,0,0,0,2.33-8.48,1.87,1.87,0,0,0-.11-.85,1.55,1.55,0,0,0-.77-.72c-2.16-1.08-4.68.34-6.67,1.71l-5.52,3.8a12,12,0,0,1-3.59,1.91A4,4,0,0,1,58,60.76" transform="translate(0 -0.13)"/><path d="M50.76,89a34,34,0,0,1-3.28-1.19c-1-.42-2.06-.87-3.07-1.33-2-1-3.93-1.93-5.74-3a69.12,69.12,0,0,1-9.88-7,68.23,68.23,0,0,1-7.71-7.68c-.56-.64-1.09-1.3-1.6-2s-1-1.28-1.49-2a11,11,0,0,1-2-4.56,8.39,8.39,0,0,1,.71-4.65A13.11,13.11,0,0,1,19,52.22a32.63,32.63,0,0,1,2.56-2.48c.83-.72,1.58-1.44,2.39-2.06,1.59-1.22,3.05-2.08,4.23-2.86a28.44,28.44,0,0,0,2.78-2,16.62,16.62,0,0,1-2.43,2.48c-1.08.95-2.45,2-3.85,3.26-.69.63-1.38,1.42-2.16,2.21S21,52.36,20.22,53.28a11.48,11.48,0,0,0-1.8,3.07A6.47,6.47,0,0,0,18,59.93c.47,2.43,2.73,4.75,4.9,7.21a68.69,68.69,0,0,0,7.62,7.19,70.67,70.67,0,0,0,9.58,6.57c1.76,1,3.61,1.94,5.53,2.84,1,.43,1.94.86,3,1.26a27.66,27.66,0,0,0,3,1.09c4.13,1.39,8.37-.32,11.38-3s5.15-6.33,7.12-9.7,3.57-6.67,5-9.79a39,39,0,0,0,1.72-4.49,19.55,19.55,0,0,0,.5-2.15c0-.35.1-.7.13-1a1.56,1.56,0,0,0,0-.57.68.68,0,0,0-.33-.38,1.62,1.62,0,0,0-.51-.22,3.16,3.16,0,0,0-1.47,0,9.39,9.39,0,0,0-3,1.21l-5.06,3.17a27.8,27.8,0,0,1-4,2.27,5.07,5.07,0,0,1-3.17.3,5.59,5.59,0,0,0,3-.78,36.83,36.83,0,0,0,3.68-2.66c1.42-1.07,3-2.26,4.84-3.59A10.5,10.5,0,0,1,74.74,53,5.17,5.17,0,0,1,77,52.93a3.12,3.12,0,0,1,2.24,1.53A3.38,3.38,0,0,1,79.42,56q0,.6-.09,1.2a20.89,20.89,0,0,1-.44,2.42,37.06,37.06,0,0,1-1.64,4.86A97.3,97.3,0,0,1,72.47,74.7c-1,1.76-2,3.55-3.17,5.36a27.32,27.32,0,0,1-4.37,5.19A17,17,0,0,1,58.59,89a12.87,12.87,0,0,1-7.83,0Z" transform="translate(0 -0.13)"/><path d="M51.46,86.57a43.27,43.27,0,0,1-4.7-1.8c-1.53-.67-3-1.37-4.46-2.12a71.8,71.8,0,0,1-20.51-16c-1.66-1.94-3.33-3.75-4-5.79a7.31,7.31,0,0,1,.75-5.9,20.48,20.48,0,0,1,3.43-4.35,41.82,41.82,0,0,1,3.38-3.33,36.28,36.28,0,0,0-3.66,3,20,20,0,0,0-3.83,4.26,10,10,0,0,0-1.26,3,7.15,7.15,0,0,0,.12,3.58c.72,2.43,2.42,4.37,4,6.38A68,68,0,0,0,50.9,88.49a12.35,12.35,0,0,0,7.79-.08A17,17,0,0,0,65,84.56a28.82,28.82,0,0,0,4.28-5.31c1.17-1.83,2.19-3.65,3.14-5.42A96.42,96.42,0,0,0,77,63.76a31,31,0,0,0,1.47-4.61A17.52,17.52,0,0,0,78.83,57c0-.37.06-.7.07-1.08a2.79,2.79,0,0,0-.14-1.19,2.86,2.86,0,0,0-2.29-1.31,5,5,0,0,0-2.25.3,12.88,12.88,0,0,0-3.3,1.84C69.11,56.86,67.64,58,66.34,59l4.84-3.05a13.57,13.57,0,0,1,3.24-1.58,4.54,4.54,0,0,1,1.94-.16,3.1,3.1,0,0,1,.92.29,1.2,1.2,0,0,1,.65.64,1.77,1.77,0,0,1,0,.76c0,.3-.07.65-.12,1a18,18,0,0,1-.45,2.05,33.47,33.47,0,0,1-1.61,4.36c-1.34,3-3,6.33-4.89,9.78s-4.08,7.17-7.24,10.14a15.1,15.1,0,0,1-5.57,3.37,10.59,10.59,0,0,1-6.61,0m.28-1a10.68,10.68,0,0,0,2.79.48,9.8,9.8,0,0,0,2.73-.36,13.35,13.35,0,0,0,5-2.67c3-2.46,5.08-5.9,7.06-9.27a106.36,106.36,0,0,0,5.09-9.92,37.68,37.68,0,0,0,1.83-4.64A16.91,16.91,0,0,0,76.75,57,10.19,10.19,0,0,0,76.9,56c0-.12,0-.14,0-.15v-.08a.76.76,0,0,0,0-.15c-.11-.22-.22-.32-.86-.41a4.26,4.26,0,0,0-1.83.29,20.72,20.72,0,0,0-3.72,2.07l-3.37,2.11c-1,.63-2,1.24-2.94,1.74a7.72,7.72,0,0,1-2.78.88A4.7,4.7,0,0,1,59.25,62c-1.12-.48-1.38-1.13-1.29-1.2s.57.24,1.52.37a5.47,5.47,0,0,0,3.89-1.19c.77-.53,1.65-1.24,2.62-2l3.18-2.39A21.12,21.12,0,0,1,73.23,53a6.91,6.91,0,0,1,3-.64,4.5,4.5,0,0,1,1.85.44,3,3,0,0,1,1.62,1.47,2.87,2.87,0,0,1,.23,1,4.34,4.34,0,0,1,0,.51l0,.44c0,.44-.06.88-.11,1.32a19.9,19.9,0,0,1-.52,2.62,40.2,40.2,0,0,1-1.78,5.11,100.71,100.71,0,0,1-5,10.41c-2,3.49-4.15,7.34-7.77,10.45a17.35,17.35,0,0,1-6.44,3.5,13.68,13.68,0,0,1-3.86.51,14.49,14.49,0,0,1-3.84-.63A32,32,0,0,1,47,88.13c-1.14-.45-2.25-1-3.36-1.48-2.19-1-4.3-2.19-6.31-3.4a70.56,70.56,0,0,1-10.82-8.12,69.25,69.25,0,0,1-8.26-9,13.35,13.35,0,0,1-2.74-5.43,9,9,0,0,1,.95-5.77,15.87,15.87,0,0,1,3-3.93c1.07-1,2.11-1.93,3-2.76a45,45,0,0,1,5.4-3.82c3-1.86,4.11-3.41,4.36-3.26s0,.58-.55,1.4a14.87,14.87,0,0,1-2.87,3.1c-1.35,1.2-3.15,2.47-4.77,4.18-1.74,1.87-3.91,3.78-5,6.31A6.1,6.1,0,0,0,18.56,60a10.74,10.74,0,0,0,2.33,4A73.21,73.21,0,0,0,29,72.38a71.65,71.65,0,0,0,10.39,7.51c1.92,1.12,3.91,2.19,6,3.16,1,.47,2.09,1,3.17,1.39A33.86,33.86,0,0,0,51.74,85.61Z" transform="translate(0 -0.13)"/><path class="cls-1" d="M140.27,60.13c.68,7.26,3.94,16.86,5.44,24,.54,2.57,1.12,5.3.21,7.76-.78,2.11-2.54,3.68-4.3,5.08a24.72,24.72,0,0,1-4.82,3.16,22.74,22.74,0,0,1-5.67,1.69,53.73,53.73,0,0,1-18.33.27,30.84,30.84,0,0,1-11.29-3.78,16.75,16.75,0,0,1-7.46-9c-1.07-3.48-.69-7.22-.3-10.84l1.3-12a11.68,11.68,0,0,1,.92-4,3.9,3.9,0,0,1,3.16-2.3,4.15,4.15,0,0,1,3.35,2,26.2,26.2,0,0,1,1.8,3.64,15.59,15.59,0,0,0,8,7.54" transform="translate(0 -0.13)"/><path d="M110.6,100.15a52.9,52.9,0,0,0,12.82,1.07,51,51,0,0,0,6-.57A30.17,30.17,0,0,0,135,99.4a17.3,17.3,0,0,0,4.58-2.5,26,26,0,0,0,3.86-3.23,6.59,6.59,0,0,0,1.81-3.78,14.92,14.92,0,0,0-.26-4.3c-1-5.8-2.38-10.69-3.16-14.63a56.41,56.41,0,0,1-1.25-8.66c.44,1.73,1.19,4.57,2.34,8.39.58,1.91,1.24,4.07,2,6.47s1.5,5.07,2.15,8a16.78,16.78,0,0,1,.49,4.94,8.76,8.76,0,0,1-.68,2.73,10,10,0,0,1-1.55,2.42A26.62,26.62,0,0,1,141.1,99a20,20,0,0,1-5.2,3,32.78,32.78,0,0,1-6,1.48,51.89,51.89,0,0,1-6.34.68A53.39,53.39,0,0,1,110,103.08a26,26,0,0,1-12.52-6,17.5,17.5,0,0,1-4-5.43A16.57,16.57,0,0,1,92,85.37a37.61,37.61,0,0,1,.31-5.82c.22-1.81.44-3.57.65-5.28s.42-3.36.62-5,.37-3.09.65-4.67A9.68,9.68,0,0,1,95,62.31a5.65,5.65,0,0,1,1.53-2,4.31,4.31,0,0,1,2.31-1,4,4,0,0,1,2.34.53,6.45,6.45,0,0,1,2.57,3c.51,1.08.82,2.09,1.23,3a17,17,0,0,0,5.39,6.52,14.44,14.44,0,0,1-6.39-6c-.53-.91-.93-1.91-1.46-2.84a5.1,5.1,0,0,0-2.11-2.22,2.23,2.23,0,0,0-2.66.44A5.11,5.11,0,0,0,96.29,65c-.18,1.38-.28,3-.43,4.57s-.29,3.26-.45,5-.32,3.47-.49,5.28a36.37,36.37,0,0,0-.16,5.42A13.72,13.72,0,0,0,96,90.42a14.87,14.87,0,0,0,3.4,4.49A23.55,23.55,0,0,0,110.6,100.15Z" transform="translate(0 -0.13)"/><path d="M110.08,102.59a53.28,53.28,0,0,0,20.41.27,32.29,32.29,0,0,0,4.61-1.12,17.22,17.22,0,0,0,4.17-2,38.26,38.26,0,0,0,3.46-2.63,15.57,15.57,0,0,0,2.9-3.11A8.14,8.14,0,0,0,147,90a14.59,14.59,0,0,0-.29-3.79c-.48-2.36-1-4.51-1.63-6.52-1.15-4-2.24-7.4-3.06-10.21.55,2.87,1.38,6.35,2.3,10.4.46,2,.92,4.21,1.28,6.51s.35,4.77-1.13,6.73a14.25,14.25,0,0,1-2.72,2.71,38.92,38.92,0,0,1-3.36,2.44,20.67,20.67,0,0,1-8.2,2.74,53.69,53.69,0,0,1-19.68-.4A26.51,26.51,0,0,1,101.23,97a15.91,15.91,0,0,1-5.9-6.89,18.41,18.41,0,0,1-1-8.5c.2-2.84.51-5.62.73-8.25s.46-5.12.67-7.48a9.45,9.45,0,0,1,.72-3.16,3.82,3.82,0,0,1,2-2,2.83,2.83,0,0,1,2.56.38,5.82,5.82,0,0,1,1.78,2c.44.75.78,1.53,1.15,2.25a15.28,15.28,0,0,0,1.18,2,16,16,0,0,1-1-2.08c-.3-.75-.58-1.56-1-2.37a6.14,6.14,0,0,0-1.79-2.25A3.53,3.53,0,0,0,98.18,60a4.62,4.62,0,0,0-2.62,2.28,10.24,10.24,0,0,0-1,3.47q-.45,3.52-1,7.46c-.31,2.63-.7,5.35-1,8.28a20,20,0,0,0,1,9.32,17.68,17.68,0,0,0,6.51,7.81,27.74,27.74,0,0,0,10,4m-.21,1a31.85,31.85,0,0,1-7.41-2.49,21.62,21.62,0,0,1-6.31-4.6,17.11,17.11,0,0,1-3.92-6.64,21.23,21.23,0,0,1-.69-7.19c.13-2.27.44-4.35.68-6.37s.5-4,.74-5.88c.12-1,.24-1.88.36-2.8s.21-1.79.38-2.75a10,10,0,0,1,.89-2.92,6,6,0,0,1,2.17-2.42,4.4,4.4,0,0,1,3.3-.6,5.25,5.25,0,0,1,2.57,1.47,11.31,11.31,0,0,1,2.24,4,15.69,15.69,0,0,0,3.23,5.32c2.39,2.53,4.31,3.33,4.17,3.63,0,.12-.58.07-1.51-.27A13.3,13.3,0,0,1,107,70.84a15.87,15.87,0,0,1-4.21-5.55,9.36,9.36,0,0,0-1.95-3.06,2.72,2.72,0,0,0-1.33-.69,1.72,1.72,0,0,0-1.25.34,4.64,4.64,0,0,0-1.54,3.42c-.1.8-.16,1.73-.25,2.65s-.16,1.85-.25,2.81q-.25,2.85-.54,5.9c-.18,2-.42,4.12-.48,6.15a17.47,17.47,0,0,0,.65,5.9A13.26,13.26,0,0,0,99,93.78c2.88,3,7.1,4.91,11.71,5.88a52.31,52.31,0,0,0,13.86,1,53.69,53.69,0,0,0,6.59-.81A19.15,19.15,0,0,0,136.87,98a23.51,23.51,0,0,0,2.48-1.58c.8-.59,1.62-1.22,2.33-1.82a8.11,8.11,0,0,0,2.86-3.89,11.44,11.44,0,0,0,0-4.8c-.29-1.71-.62-3.36-1-4.93-1.43-6.3-2.67-11.48-3.14-15.13s-.38-5.72-.12-5.74.68,1.95,1.64,5.42,2.56,8.46,4.37,14.77c.44,1.58.87,3.26,1.26,5a14.36,14.36,0,0,1,.22,6.19,9.2,9.2,0,0,1-1.47,3.21A15.33,15.33,0,0,1,144,97.26c-.82.74-1.63,1.39-2.5,2.07a26.51,26.51,0,0,1-2.84,1.91,22.61,22.61,0,0,1-6.76,2.37,55.71,55.71,0,0,1-7.07,1A54.5,54.5,0,0,1,109.87,103.57Z" transform="translate(0 -0.13)"/></g><g id="Rock_copy" data-name="Rock copy"><path class="cls-6" d="M21,177.31c-.88,0-2-1.21-2.58-1.8a22.27,22.27,0,0,0-2.68-2.46,21.15,21.15,0,0,1-2.33-2.21c-1.17-1.18-2.56-2.15-3.77-3.28a10.62,10.62,0,0,1-3.33-5.64,12.23,12.23,0,0,1,.44-5.25,6.57,6.57,0,0,1,1.09-2.39c.31-.4.58-.84.89-1.23a16.93,16.93,0,0,1,1.71-1.56,9,9,0,0,0,2.27-4.91,17.71,17.71,0,0,0,.55-3.61,8.84,8.84,0,0,1,.33-2.1c.19-.84.17-1.7.37-2.54.33-1.31.64-2.57,1-3.86a26.15,26.15,0,0,0,.86-3.38,27.51,27.51,0,0,1,.87-3.47,7.84,7.84,0,0,1,.93-2.24,15.3,15.3,0,0,1,1.41-1.11,5.31,5.31,0,0,1,.87-.84,8.91,8.91,0,0,0,1.45-.84,4.27,4.27,0,0,1,1.54-.76,19.86,19.86,0,0,0,2.06-1,6,6,0,0,0,2.19-1.28,9,9,0,0,0,1.28-2.31,8.13,8.13,0,0,1,.92-1.69c.33-.41.74-.72,1-1.17.52-.8,1.25-1.29,1.8-2.06a12.57,12.57,0,0,1,3-2.53,8.09,8.09,0,0,1,2-1.35c.31-.11.6-.29.9-.39a5.3,5.3,0,0,1,1.19-.14c.74-.1,1.44-.42,2.17-.51a23.45,23.45,0,0,1,2.78,0c.68,0,1.36,0,2,0a12.85,12.85,0,0,1,3.05.64,29,29,0,0,1,5.73,2c1,.5,1.83,1.11,2.8,1.56.34.16.66.3,1,.44a9.9,9.9,0,0,1,1.55,1,10.58,10.58,0,0,0,5.17,1.61H82.44a15.31,15.31,0,0,1,5.18.66c1.38.48,2.76,1,4.13,1.55a33.77,33.77,0,0,1,3,1.6c.71.35,1.47.56,2.19.9a30.4,30.4,0,0,1,3.29,1.85,8.86,8.86,0,0,0,3.36,1.2c.55.11,1,.45,1.55.52a3.93,3.93,0,0,0,1.28-.08c.82-.21,1.66-.36,2.53-.52.54-.1,1-.14,1.6-.21s1.26-.4,1.93-.51a9.63,9.63,0,0,1,1.81-.25,11.32,11.32,0,0,0,1.93,0,14.33,14.33,0,0,1,2.85-.53,12.4,12.4,0,0,1,3.6.25c2.15.65,3.75,2.06,5.5,3.38a9.76,9.76,0,0,1,2.26,1.73,22.25,22.25,0,0,0,2.31,2.13c.65.64,1.46,1.09,2.18,1.67a11.54,11.54,0,0,1,2,2.18c.81,1.12,1.5,2,1.5,3.37,0,.69,0,1.38,0,2.07a6.88,6.88,0,0,1,0,1.87c-.14.45-.45.71-.49,1.21a16,16,0,0,0,0,2.08,9.08,9.08,0,0,0,1.41,3.62c.69,1.37,1.37,2.71,2,4.11.73,1.57,1.82,2.88,2.28,4.55.2.7.44,1.35.62,2s0,1.28.11,1.94c.06.32.24.57.28.9a6.76,6.76,0,0,1,0,.9c0,.82,0,1.64,0,2.46a5,5,0,0,1-.26,1.92c-.37,1-.07,1.9-.32,2.85a24,24,0,0,0-.19,4c-.08.92-.48,1.77-.53,2.72,0,1.22-.25,2.37-.25,3.61" transform="translate(0 -0.13)"/><path d="M69.7,116.1H66.35c-.37,0-.73,0-1.21,0a12,12,0,0,1-4.76-1.45l-.53-.29a6.12,6.12,0,0,1-.57-.37c-.36-.26-.57-.43-.72-.51l-.89-.38a11.81,11.81,0,0,1-1.07-.53l-1.84-1.06a14.86,14.86,0,0,0-1.71-.81c-1.2-.47-2.48-.82-3.79-1.19-.67-.18-1.3-.38-1.86-.51-.29-.06-.56-.11-.8-.14s-.55,0-.88,0c-.66,0-1.24,0-2,0s-1.28-.07-1.78,0a3.32,3.32,0,0,0-.68.11l-.9.25a7,7,0,0,1-1.2.19l-.41,0-.13,0s-.49.25-.91.4a2.47,2.47,0,0,0-.59.32c-.41.3-1.13.88-1.67,1.23A17,17,0,0,0,34,112.43a6.73,6.73,0,0,0-.53.56l-.33.44c-.14.16-.27.31-.4.44l-.7.71-.25.29-.11.14-.15.22a6.83,6.83,0,0,1-.8.88,2.37,2.37,0,0,0-.42.53,15.33,15.33,0,0,0-.78,1.61,9.59,9.59,0,0,1-1.13,2,4.39,4.39,0,0,1-1,.93,7.22,7.22,0,0,1-1.05.52c-.31.13-.54.23-.78.35l-.81.43a9.14,9.14,0,0,1-.94.46c-.37.16-.69.26-.93.35a1.67,1.67,0,0,0-.5.25l-.15.11-.26.19a4.87,4.87,0,0,1-.52.32l-.75.37-.13.1-.25.27a4.77,4.77,0,0,1-.45.44c-.17.14-.32.25-.46.35a5,5,0,0,0-.62.43.8.8,0,0,0-.24.32,5.42,5.42,0,0,0-.28.67c-.17.49-.36,1.1-.52,1.61s-.31,1.07-.44,1.6-.21,1-.34,1.65c-.25,1.16-.63,2.28-.93,3.32s-.59,2.06-.87,3.06A6.72,6.72,0,0,0,15,139c0,.23-.07.47-.1.72a11,11,0,0,1-.28,1.67,8,8,0,0,0-.26,1.34l0,.75c0,.29,0,.56-.09.83-.17,1.09-.41,2-.62,3a12.43,12.43,0,0,1-1,2.9,7.32,7.32,0,0,1-2,2.38c-.36.3-.7.55-.95.8a9.54,9.54,0,0,0-.76,1l-.38.5a3.28,3.28,0,0,0-.31.45,5,5,0,0,0-.46,1,12.57,12.57,0,0,0-.82,4.42,7.71,7.71,0,0,0,1,3.85,12.09,12.09,0,0,0,2.3,2.93c.87.83,1.77,1.56,2.56,2.31s1.45,1.54,2.07,2.2,1.3,1.15,1.85,1.7a20.34,20.34,0,0,1,1.41,1.52c-.45-.41-1-.87-1.56-1.34s-1.34-.9-2-1.55-1.38-1.35-2.21-2-1.75-1.34-2.71-2.15a12.58,12.58,0,0,1-2.66-3,8.7,8.7,0,0,1-1.39-4.38,13.8,13.8,0,0,1,.7-4.95,6.77,6.77,0,0,1,.54-1.3,5,5,0,0,1,.4-.62l.37-.54a9.58,9.58,0,0,1,.84-1.12,12,12,0,0,1,1.06-.95,7.33,7.33,0,0,0,2.23-4.37c.17-.91.4-1.93.51-2.82,0-.23,0-.45,0-.67v-.76a10,10,0,0,1,.27-1.69,9.91,9.91,0,0,0,.2-1.42q0-.39.09-.84a6.27,6.27,0,0,1,.19-.87c.27-1.05.54-2.12.82-3.2s.6-2.07.8-3.13c.1-.49.19-1.11.32-1.69s.28-1.17.44-1.75.32-1.11.52-1.73a7.37,7.37,0,0,1,.39-1,3.47,3.47,0,0,1,.81-1.09c.33-.29.63-.46.84-.62l.25-.19a2,2,0,0,0,.19-.2c.09-.11.2-.23.36-.4a3.66,3.66,0,0,1,.58-.46c.39-.23.66-.34.88-.46l.26-.17.33-.26a4.94,4.94,0,0,1,1.12-.61c.34-.13.61-.22.81-.31s.47-.23.73-.37l.85-.47c.32-.17.67-.32.94-.44a3.45,3.45,0,0,0,.65-.34,1.28,1.28,0,0,0,.38-.36,6.19,6.19,0,0,0,.76-1.4c.28-.6.49-1.17.91-1.91a5.73,5.73,0,0,1,.8-1,6.69,6.69,0,0,0,.53-.58l.13-.2.19-.26c.13-.17.27-.32.4-.46l.7-.73.27-.31.27-.37a7.59,7.59,0,0,1,.85-.92A17.94,17.94,0,0,1,33.85,109c.61-.41.94-.7,1.65-1.23a5.09,5.09,0,0,1,1.22-.68c.24-.07.4-.21,1-.44a3.52,3.52,0,0,1,.77-.16l.52,0a3,3,0,0,0,.64-.11l.91-.26a6.54,6.54,0,0,1,1.2-.19,20.13,20.13,0,0,1,2.07,0c.55,0,1.28,0,1.93,0a10.64,10.64,0,0,1,1.1,0,9.86,9.86,0,0,1,1.17.19c.73.17,1.39.37,2,.54,1.29.36,2.66.72,4.06,1.26a16.25,16.25,0,0,1,2.08,1l1.83,1a7.42,7.42,0,0,0,.85.41c.33.15.48.19,1.07.48a7.81,7.81,0,0,1,1.07.71,2.66,2.66,0,0,0,.33.21l.42.24a9.12,9.12,0,0,0,3.56,1.1c.26,0,.64,0,1,0H79.19c1.58,0,3,0,4.68,0a19.22,19.22,0,0,1,2.46.26,11.89,11.89,0,0,1,2.38.7l2.09.79c.71.29,1.31.47,2.17.86s1.39.78,2,1.11a7.56,7.56,0,0,0,.81.4l.94.37a23.53,23.53,0,0,1,3.94,2.08l.43.27a3.35,3.35,0,0,0,.36.21,6.36,6.36,0,0,0,.75.34,10.15,10.15,0,0,0,1.71.45,4.76,4.76,0,0,1,1.08.38,1.21,1.21,0,0,0,.39.13,2.25,2.25,0,0,0,.52,0l.23,0,.4-.09c1.12-.21,2.21-.48,3.33-.58a5.63,5.63,0,0,0,1.37-.28,6.26,6.26,0,0,1,.92-.25l.78-.14a6.73,6.73,0,0,1,1.91-.13,5.84,5.84,0,0,0,1.24,0c.41-.07.88-.21,1.45-.34a7.67,7.67,0,0,1,.9-.15,8,8,0,0,1,.92,0,14.87,14.87,0,0,1,3.28.22,14.9,14.9,0,0,1,5.53,3.11c.36.29.77.62,1.06.82s.74.47,1.21.81a5.17,5.17,0,0,1,.66.59,3.27,3.27,0,0,1,.3.35l.18.22a7.43,7.43,0,0,0,.85.81c.34.28.71.58,1.08.94a6.39,6.39,0,0,0,.89.76,14.8,14.8,0,0,1,2.15,1.77,16.32,16.32,0,0,1,1.68,2.11,6.27,6.27,0,0,1,1.24,2.62,5,5,0,0,1,.07.76V136l0,1.17a10.14,10.14,0,0,0,0,1.1,4.45,4.45,0,0,1-.14,1.47c-.36.88-.47.83-.48,1.09v1.53a3.46,3.46,0,0,0,.18,1.35c.28.85.89,1.81,1.31,2.77s.87,1.87,1.3,2.76.78,1.7,1.26,2.52a15.2,15.2,0,0,1,1.25,2.6c.28.94.48,1.72.71,2.56a4.91,4.91,0,0,1,.06,1.4,2,2,0,0,0,.14,1,2.79,2.79,0,0,1,.12,1.37l0,1.11c0,.76,0,1.45-.07,2.18a4.65,4.65,0,0,1-.22,1.11,4,4,0,0,0-.26.87c-.09.57,0,1.21-.16,1.85-.07.35-.15.58-.2.85a7.08,7.08,0,0,0-.09.79,20.92,20.92,0,0,1-.2,3c-.2.89-.52,1.6-.6,2.28a19.43,19.43,0,0,1,.34-2.32,25,25,0,0,0-.06-2.94,6.24,6.24,0,0,1,0-.86c0-.3.11-.62.14-.87.07-.53,0-1.14,0-1.84a4.23,4.23,0,0,1,.23-1,3.76,3.76,0,0,0,.12-.9c0-.69,0-1.4-.06-2.14,0-.38,0-.76,0-1.15a1.75,1.75,0,0,0-.11-.93,2.71,2.71,0,0,1-.22-.68,4.43,4.43,0,0,1-.05-.7,4.24,4.24,0,0,0-.08-1.08c-.26-.78-.52-1.58-.8-2.41a13.56,13.56,0,0,0-1.22-2.3,29.27,29.27,0,0,1-1.44-2.59l-1.38-2.68c-.43-.93-1-1.74-1.49-2.94a5.46,5.46,0,0,1-.33-1.89l0-1.82c0-.53.53-1.38.51-1.44a16,16,0,0,0,0-2v-1.75a3,3,0,0,0,0-.43,4.42,4.42,0,0,0-.93-1.73,14.34,14.34,0,0,0-1.51-1.81A12.54,12.54,0,0,0,133,130a11.38,11.38,0,0,1-1.14-.94c-.28-.26-.61-.52-1-.81a9.05,9.05,0,0,1-1.15-1l-.26-.31-.16-.17a3,3,0,0,0-.37-.32c-.29-.21-.69-.43-1.14-.72s-.81-.59-1.2-.89A12.77,12.77,0,0,0,122,122.2a12.8,12.8,0,0,0-2.72-.1,5.36,5.36,0,0,0-.62,0l-.6.12c-.44.1-1,.27-1.56.39a8.12,8.12,0,0,1-1.88,0,4.08,4.08,0,0,0-1.24.1l-.78.15-.62.18a9.23,9.23,0,0,1-.89.26c-.41.09-.61.1-.87.14a30,30,0,0,0-3.09.58l-.41.08a4.55,4.55,0,0,1-.59.1,5.22,5.22,0,0,1-1.12,0,3.83,3.83,0,0,1-1.21-.34,3,3,0,0,0-.48-.18,12.07,12.07,0,0,1-2.18-.56,8.22,8.22,0,0,1-1.1-.49c-.18-.09-.35-.19-.53-.3l-.43-.27c-.57-.35-1.14-.68-1.72-1-.29-.16-.58-.31-.88-.45s-.53-.23-.85-.36l-1-.39a9.4,9.4,0,0,1-1.1-.55c-.68-.37-1.27-.74-1.81-1s-1.26-.49-1.91-.74l-2.07-.78a9.2,9.2,0,0,0-1.93-.56,13.31,13.31,0,0,0-2-.2c-1.42,0-3,0-4.56,0Z" transform="translate(0 -0.13)"/><path d="M69.7,113.6H67.34c-.75,0-1.62,0-2.24,0a10.07,10.07,0,0,1-3.92-1.35,7.38,7.38,0,0,1-.84-.57,4.88,4.88,0,0,0-.58-.37c-.21-.12-.49-.22-.61-.28a12.8,12.8,0,0,1-1.86-.91c-.61-.35-1.25-.76-1.95-1.1a18.29,18.29,0,0,0-2.08-.86c-1.38-.48-2.73-.82-4-1.18a17.58,17.58,0,0,0-2-.48,13.29,13.29,0,0,0-2.05-.06c-.67,0-1.22,0-1.83,0a11.83,11.83,0,0,0-2,0c-.74.12-1.29.34-1.76.44a2.93,2.93,0,0,1-.66.1,3.45,3.45,0,0,0-1.06.16c-.37.14-.6.28-.79.36l-.35.14a2.86,2.86,0,0,0-.43.21,10.9,10.9,0,0,0-1.37,1c-.75.58-1.67,1.14-2.49,1.9a7,7,0,0,0-.6.62c-.1.11-.19.23-.28.35l-.2.26c-.26.33-.61.66-1,1.06a6.05,6.05,0,0,0-.55.65l-.19.29-.19.22a7.41,7.41,0,0,0-1,1.24,12.05,12.05,0,0,0-.69,1.41c-.21.45-.39.89-.58,1.27a4.33,4.33,0,0,1-.66,1,2.86,2.86,0,0,1-.94.58,13.22,13.22,0,0,0-1.32.64c-.41.23-.8.46-1.17.63s-.75.28-1.27.51a3.63,3.63,0,0,0-.73.44l-.26.21-.21.15a13.52,13.52,0,0,0-1.25.7c-.52.45-.67.77-.93.94a10,10,0,0,0-1.14.86,4,4,0,0,0-.78,1.39,31.29,31.29,0,0,0-1.3,5c-.26,1.57-.79,3.07-1.17,4.64-.19.77-.39,1.54-.59,2.29a23,23,0,0,0-.31,2.32,18.71,18.71,0,0,0-.37,2.26,10.28,10.28,0,0,1-.16,2.1,27.28,27.28,0,0,1-.92,4,6.53,6.53,0,0,1-2.13,3c-.25.21-.5.42-.74.66a5.1,5.1,0,0,0-.6.78,16,16,0,0,0-1.05,1.58,12.78,12.78,0,0,0-1,6.79,9.84,9.84,0,0,0,2.78,5.19,9.88,9.88,0,0,1-2.47-5.22,12.46,12.46,0,0,1,1.24-6.48,16.84,16.84,0,0,1,1-1.45A5.06,5.06,0,0,1,10,152.36a7.38,7.38,0,0,0,2.48-3.28,14.53,14.53,0,0,0,.62-2c.15-.69.3-1.39.46-2.09a11.27,11.27,0,0,0,.24-2.23,17.67,17.67,0,0,1,.42-2.13,18.32,18.32,0,0,1,.35-2.21c.21-.74.42-1.48.63-2.24.39-1.5,1-3,1.3-4.74a30.72,30.72,0,0,1,1.33-4.76,2.72,2.72,0,0,1,.49-.88c.19-.19.56-.39,1-.7s.78-.81,1-.92.66-.33,1.11-.59a3.5,3.5,0,0,0,.35-.23l.27-.21a2.16,2.16,0,0,1,.44-.25c.31-.14.81-.27,1.29-.5s.88-.44,1.28-.66.74-.36,1.2-.56a4.6,4.6,0,0,0,1.45-.9,6,6,0,0,0,1-1.36c.25-.47.44-.93.63-1.35a12.09,12.09,0,0,1,.61-1.2,6.55,6.55,0,0,1,.86-1A3.45,3.45,0,0,0,31,115l.22-.32a5.82,5.82,0,0,1,.41-.48c.31-.33.7-.68,1.07-1.13l.26-.33.19-.24a5,5,0,0,1,.46-.46c.68-.61,1.51-1.12,2.4-1.78a9.67,9.67,0,0,1,1.15-.83,1.23,1.23,0,0,1,.26-.12l.37-.15c.3-.13.52-.25.65-.29a1.72,1.72,0,0,1,.55-.06,5.6,5.6,0,0,0,1-.13c.64-.15,1.17-.34,1.6-.39a9.65,9.65,0,0,1,1.63,0c.6,0,1.29,0,1.89,0a14.43,14.43,0,0,1,1.79.06,12.9,12.9,0,0,1,1.79.44c1.3.38,2.62.72,3.89,1.17a17.29,17.29,0,0,1,3.69,1.82,15.91,15.91,0,0,0,2.11,1c.21.09.29.12.4.18a2.8,2.8,0,0,1,.36.24,8,8,0,0,0,1,.69,12.14,12.14,0,0,0,4.71,1.61c.93.07,1.63,0,2.43,0H79.66c1.62,0,3.25,0,4.72,0a12,12,0,0,1,2.13.31,18.18,18.18,0,0,1,2.07.71l2.09.78a10.63,10.63,0,0,1,1.86.81c.6.33,1.21.72,1.92,1.06s1.39.53,1.94.77a29,29,0,0,1,3.33,1.83,9.91,9.91,0,0,0,3.73,1.34,2.72,2.72,0,0,1,.61.22,3.44,3.44,0,0,0,1.09.3,5,5,0,0,0,1,0,4.51,4.51,0,0,0,.53-.1l.4-.08a30.22,30.22,0,0,1,3.19-.59l.4-.06a3.86,3.86,0,0,0,.49-.1c.31-.08.58-.17.82-.25a3.88,3.88,0,0,1,.67-.17l.81-.16a4.5,4.5,0,0,1,1.38-.07c.27,0,.55,0,.86,0a4.64,4.64,0,0,0,.94-.12l1.51-.38a5.44,5.44,0,0,1,1.38-.11,10.49,10.49,0,0,1,2.81.16,14.54,14.54,0,0,1,4.77,2.77c.37.28.76.59,1.2.86a10.86,10.86,0,0,1,1.09.72,3.78,3.78,0,0,1,.41.39,5.36,5.36,0,0,0,.48.55,12.7,12.7,0,0,0,1.08.94,11.56,11.56,0,0,1,1,.83,8.62,8.62,0,0,0,1.11.87,11,11,0,0,1,1.91,1.53,17.4,17.4,0,0,1,1.53,1.86,4.45,4.45,0,0,1,.94,1.9,4.4,4.4,0,0,1,0,.51v.58l0,1.15a12.16,12.16,0,0,1,0,2.09,4.68,4.68,0,0,1-.3.62,1.84,1.84,0,0,0-.19.73l0,1.88a5,5,0,0,0,.4,1.84c.49,1.14,1.09,2,1.56,3l1.43,2.8c.45.92,1,1.79,1.48,2.59a10.3,10.3,0,0,1,1.16,2.45l.41,1.26a3.86,3.86,0,0,1,.28,1.21,10.4,10.4,0,0,0,.06,1.24c.07.44.34.75.34,1.14,0,.78,0,1.55,0,2.28,0-.74,0-1.49.08-2.28,0-.42-.24-.79-.27-1.17a9.92,9.92,0,0,1,0-1.22,4.27,4.27,0,0,0-.24-1.28c-.11-.42-.23-.84-.35-1.27a10.49,10.49,0,0,0-1.09-2.6,29,29,0,0,1-1.36-2.6l-1.34-2.86c-.43-1-1-2-1.44-3a4.25,4.25,0,0,1-.28-1.58v-1.74a1.17,1.17,0,0,1,.14-.45,4.7,4.7,0,0,0,.36-.72,11,11,0,0,0,.1-2.38l0-1.15v-.58a3.78,3.78,0,0,0-.05-.67,5.57,5.57,0,0,0-1.08-2.42,17.9,17.9,0,0,0-1.58-2,12.1,12.1,0,0,0-2.06-1.74,8.23,8.23,0,0,1-.94-.77c-.32-.32-.7-.64-1-.92a9.91,9.91,0,0,1-.94-.86,5.57,5.57,0,0,1-.41-.48,4.54,4.54,0,0,0-.58-.58,10.69,10.69,0,0,0-1.21-.84c-.36-.23-.7-.51-1.09-.81a15.66,15.66,0,0,0-5.24-3.12,12.19,12.19,0,0,0-3.23-.27,7.35,7.35,0,0,0-1.7.13c-.56.11-1.06.26-1.52.36a2.71,2.71,0,0,1-.62.06,6.27,6.27,0,0,1-.73,0,6.48,6.48,0,0,0-1.8.08l-.78.14a5.93,5.93,0,0,0-.9.21c-.27.09-.52.17-.74.22l-.31.06-.41.05a32.66,32.66,0,0,0-3.35.59l-.42.08a1.57,1.57,0,0,1-.3,0,2.91,2.91,0,0,1-.66,0,1.56,1.56,0,0,1-.53-.17,4.82,4.82,0,0,0-1-.35,8.05,8.05,0,0,1-3.09-1.13,29.51,29.51,0,0,0-3.55-2c-.69-.3-1.35-.5-1.88-.76s-1.15-.65-1.8-1a14.2,14.2,0,0,0-2.13-.95l-2.1-.8a20.34,20.34,0,0,0-2.25-.77,14.07,14.07,0,0,0-2.47-.38c-1.66-.1-3.23,0-4.86-.07h-10m0-1h9.2l4.57,0a19.55,19.55,0,0,1,2.48.2,11.74,11.74,0,0,1,2.53.65l4.23,1.61a17.56,17.56,0,0,1,2.17,1.16,8.79,8.79,0,0,0,1.67.79,23.51,23.51,0,0,1,4.16,2.13,7.93,7.93,0,0,0,1.56.86,8.88,8.88,0,0,0,1.7.46,5.42,5.42,0,0,1,1.16.39l.27.11a1.78,1.78,0,0,0,.36,0l.18,0,.29-.06c1.08-.19,2.13-.49,3.23-.59l.81-.1a3,3,0,0,0,.47-.11l.78-.23a6.78,6.78,0,0,1,.91-.19,9.62,9.62,0,0,1,1.85-.23c.7,0,1.16.08,1.47.07a6.41,6.41,0,0,0,1.08-.22,10.41,10.41,0,0,1,1.8-.33h1.6a10.35,10.35,0,0,1,7.67,3l1.12.88.48.36.55.36a6.74,6.74,0,0,1,1.42,1.14c.12.12.22.25.33.38l.14.17a4.09,4.09,0,0,0,.36.37c.27.25.62.53,1,.85.19.17.39.34.59.54s.23.23.38.36c.53.44,1.41,1,2.18,1.71a13.9,13.9,0,0,1,1.91,2.23,8.56,8.56,0,0,1,1.48,2.75,5.71,5.71,0,0,1,.15.89c0,.3,0,.6,0,.78l0,1.24v.6c0,.14,0,.33,0,.55s0,.46,0,.74a3.88,3.88,0,0,1-.17,1,4.19,4.19,0,0,1-.39.82.49.49,0,0,0-.06.17c0,.56,0,1.36,0,1.91a4.12,4.12,0,0,0,.5,1.57c.27.56.67,1.3.95,1.92l.89,1.89c.28.62.57,1.22.85,1.82s.54,1.07.86,1.64a17.81,17.81,0,0,1,.93,1.8,14.57,14.57,0,0,1,.62,1.92l.24.87.12.43a5.27,5.27,0,0,1,.11.59c.05.81-.05,1.36,0,1.57a1.22,1.22,0,0,0,.08.26,2.72,2.72,0,0,1,.17.62,3.22,3.22,0,0,1,0,.62l0,.4-.05,1.55c0,.52,0,1,0,1.53a5.22,5.22,0,0,1-.36,1.71,17.39,17.39,0,0,0-.33,2.51c-.07.31-.11.39-.15.58s-.06.35-.08.53c0,.36-.05.73-.06,1.1a11.91,11.91,0,0,1-.17,2.23c-.16.71-.38,1.27-.5,1.76s-.15,1-.24,1.44c-.33,1.78-.47,2.68-.61,2.69s-.29-1-.23-2.77a14.44,14.44,0,0,1,0-1.55c.08-.6.25-1.2.31-1.78a12.43,12.43,0,0,0,0-2,12,12,0,0,1,0-1.23q0-.33.06-.69c0-.21.1-.53.11-.64a6.12,6.12,0,0,0,0-1.15,4.71,4.71,0,0,1,.21-1.67,3.13,3.13,0,0,0,.16-1.12l0-1.5c0-.52,0-1.06,0-1.61v-.41a1.15,1.15,0,0,0,0-.19,1,1,0,0,0-.07-.18,3.74,3.74,0,0,1-.19-.53,14.16,14.16,0,0,1-.15-1.83,1.06,1.06,0,0,0-.07-.27l-.13-.42-.28-.84a10.87,10.87,0,0,0-.57-1.54,16.58,16.58,0,0,0-.87-1.53c-.34-.55-.7-1.13-1-1.79l-.93-1.79-.94-1.83c-.32-.64-.62-1.14-1-1.86a7.11,7.11,0,0,1-.86-2.54c-.06-.93,0-1.62-.06-2.56a3,3,0,0,1,.33-1.12,2.07,2.07,0,0,0,.2-.41,2.4,2.4,0,0,0,0-.68c0-.19,0-.41,0-.69V137c0-.42,0-.84,0-1.26a3,3,0,0,0,0-.48,1.81,1.81,0,0,0-.07-.35,5.71,5.71,0,0,0-1-1.69,11.1,11.1,0,0,0-1.53-1.72c-.51-.48-1.18-.85-2.06-1.53-.2-.15-.46-.38-.63-.54a5.5,5.5,0,0,0-.42-.37c-.31-.26-.69-.54-1.1-.9-.2-.18-.41-.39-.62-.61l-.3-.35-.13-.15a3.94,3.94,0,0,0-.77-.56l-.64-.4c-.23-.15-.48-.34-.66-.47l-1.13-.85a17.2,17.2,0,0,0-2.17-1.43,6,6,0,0,0-2.11-.72,12,12,0,0,0-1.25,0l-.75,0h-.63a6.42,6.42,0,0,0-1.13.24,8.65,8.65,0,0,1-1.89.35c-.7,0-1.24,0-1.57,0a6.27,6.27,0,0,0-1.17.18,4.23,4.23,0,0,0-.6.13l-.69.22a7.86,7.86,0,0,1-1,.24l-.73.1c-1,.09-1.94.38-2.92.56l-.49.11c-.21,0-.41.06-.6.08a5.68,5.68,0,0,1-1.22,0,4.47,4.47,0,0,1-1.24-.38,3,3,0,0,0-.34-.13,12.79,12.79,0,0,1-2.38-.63,11.91,11.91,0,0,1-2.19-1.15,18.65,18.65,0,0,0-3.51-1.77c-.34-.13-.74-.28-1.16-.48a12.26,12.26,0,0,1-1.1-.58,14.17,14.17,0,0,0-1.7-.91l-4-1.52a10.88,10.88,0,0,0-3.79-.6h-18a11.83,11.83,0,0,1-4.88-1.36c-.37-.18-.68-.35-1.08-.59s-.76-.55-.92-.65-1-.43-1.68-.78-1.36-.77-1.92-1.09a13,13,0,0,0-1.62-.82,31.31,31.31,0,0,0-3.69-1.21l-1.92-.54c-.29-.07-.57-.14-.81-.18l-.35,0H44.05c-.76,0-1.39-.07-1.9-.06a3.31,3.31,0,0,0-.34,0l-.28,0-.89.24a6.57,6.57,0,0,1-1.35.24l-.49,0a1.77,1.77,0,0,0-.33.15,6.7,6.7,0,0,1-.63.26,3,3,0,0,0-.6.37c-.25.19-.62.5-1,.76l-1,.67a6.73,6.73,0,0,0-1.39,1.19l-.36.45a7,7,0,0,1-.48.55c-.32.32-.58.57-.76.78s-.17.2-.24.29l-.19.27-.28.35c-.37.4-.63.63-.73.76a8.92,8.92,0,0,0-.82,1.6,9.88,9.88,0,0,1-1.4,2.38,4.63,4.63,0,0,1-1.4,1.11c-.47.24-.86.38-1.14.51-.49.21-1.12.61-1.94,1-.19.09-.44.19-.64.26l-.5.17a1.36,1.36,0,0,0-.45.24,5.65,5.65,0,0,1-1.25.77l-.39.19-.05,0-.31.34a4.27,4.27,0,0,1-.63.56c-.41.31-.7.47-.83.58s-.05,0-.17.23a5.28,5.28,0,0,0-.3.75l-.31,1-.29.94c-.18.62-.33,1.24-.45,1.85s-.29,1.42-.47,2.08-.41,1.36-.6,2L16,137.06l-.5,1.77c-.1.43-.14,1-.25,1.77s-.32,1.35-.39,1.82c0,.11,0,.22,0,.33v.4c0,.37-.05.73-.09,1.07-.1.69-.24,1.31-.37,1.9l-.19.85c-.07.31-.14.62-.22.93a10.55,10.55,0,0,1-1.65,3.6,7.73,7.73,0,0,1-1.4,1.45,8,8,0,0,0-1.05.9l-.94,1.23a4.21,4.21,0,0,0-.6,1c-.15.38-.32.92-.44,1.32a10.45,10.45,0,0,0-.3,1.32,10.76,10.76,0,0,0-.14,2.57,6.76,6.76,0,0,0,.6,2.25,11.11,11.11,0,0,0,2.68,3.64c1.08,1,2.23,1.92,3.19,2.94a22.74,22.74,0,0,0,2.44,2.51,39.21,39.21,0,0,1,3.42,3.63,9.7,9.7,0,0,0,1.28,1c0,.05-.16.12-.48.07a3.28,3.28,0,0,1-1.23-.58c-1-.66-2.1-1.92-3.78-3.11a20.1,20.1,0,0,1-2.78-2.39c-.92-.85-2.08-1.64-3.32-2.66a13.12,13.12,0,0,1-3.38-4.13,8.74,8.74,0,0,1-.93-2.94,12.85,12.85,0,0,1,0-3.16,15.58,15.58,0,0,1,.29-1.61c.15-.57.27-1,.47-1.6a6.66,6.66,0,0,1,.91-1.7l.95-1.35a10,10,0,0,1,1.37-1.31,5.39,5.39,0,0,0,.89-1,7.93,7.93,0,0,0,1.09-2.68c.06-.26.11-.52.16-.8l.17-.88c.12-.59.22-1.14.28-1.66,0-.26,0-.51,0-.75v-.52a5.61,5.61,0,0,1,.06-.59c.09-.75.3-1.42.34-1.84s.08-1.18.24-2c.17-.65.33-1.3.5-2s.33-1.29.5-1.95.36-1.23.51-1.84.27-1.17.38-1.86a21.4,21.4,0,0,1,.47-2.14l.29-1,.31-1a9.31,9.31,0,0,1,.46-1.2,3.88,3.88,0,0,1,1.1-1.43c.42-.33.74-.52.89-.65a.73.73,0,0,0,.16-.15l.41-.45a3.34,3.34,0,0,1,.79-.61c.23-.14.41-.22.57-.31a2.18,2.18,0,0,0,.58-.35,4.84,4.84,0,0,1,1.43-.83l.53-.2.37-.15c.51-.24,1.11-.64,2-1,.39-.18.7-.3.89-.41a1.07,1.07,0,0,0,.33-.26,6.77,6.77,0,0,0,.82-1.52A10.63,10.63,0,0,1,28,114.36c.37-.46.69-.74.83-.9l.08-.11.13-.19c.16-.23.33-.43.49-.62.32-.37.62-.65.84-.89l.28-.32.35-.47a10.93,10.93,0,0,1,2.11-1.9l1-.69c.28-.19.51-.39.88-.68a6.42,6.42,0,0,1,1.42-.87l.48-.2a6.13,6.13,0,0,1,.76-.33,4.09,4.09,0,0,1,.93-.2l.53,0a2.81,2.81,0,0,0,.6-.12c.27-.07.6-.18,1-.28a6.72,6.72,0,0,1,.7-.13c.23,0,.44,0,.65-.05.83,0,1.53,0,2.12,0h2.63l.66.08c.42.07.81.15,1.18.24l2,.56a34.5,34.5,0,0,1,4.16,1.35,17.62,17.62,0,0,1,2.09,1c.63.38,1.2.72,1.71,1,.24.13.54.24.82.37a7,7,0,0,1,1.29.65c.42.29.65.48.8.57s.51.29.77.42a8.31,8.31,0,0,0,3.24.93Z" transform="translate(0 -0.13)"/><ellipse cx="77.61" cy="178.12" rx="75.26" ry="1.5"/><path d="M77.61,177.24c-30.87,0-54.71.45-67.31,1,12.6.56,36.44,1,67.31,1s54.71-.44,67.31-1c-12.6-.55-36.43-1-67.31-1m0-1c42.87,0,77.62.9,77.62,2s-34.75,2-77.62,2S0,179.35,0,178.24,34.75,176.24,77.61,176.24Z" transform="translate(0 -0.13)"/></g></g></svg>